<?xml version="1.0" encoding="UTF-8" standalone="no"?>
<!-- Generator: Adobe Illustrator 16.0.0, SVG Export Plug-In . SVG Version: 6.00 Build 0)  -->

<svg
   xmlns:dc="http://purl.org/dc/elements/1.1/"
   xmlns:cc="http://creativecommons.org/ns#"
   xmlns:rdf="http://www.w3.org/1999/02/22-rdf-syntax-ns#"
   xmlns:svg="http://www.w3.org/2000/svg"
   xmlns="http://www.w3.org/2000/svg"
   xmlns:sodipodi="http://sodipodi.sourceforge.net/DTD/sodipodi-0.dtd"
   xmlns:inkscape="http://www.inkscape.org/namespaces/inkscape"
   version="1.1"
   id="Capa_1"
   x="0px"
   y="0px"
   width="512px"
   height="512px"
   viewBox="0 0 482.428 482.429"
   style="enable-background:new 0 0 482.428 482.429;"
   xml:space="preserve"
   sodipodi:docname="delete.svg"
   inkscape:version="0.92.2 2405546, 2018-03-11"><metadata
   id="metadata12072"><rdf:RDF><cc:Work
       rdf:about=""><dc:format>image/svg+xml</dc:format><dc:type
         rdf:resource="http://purl.org/dc/dcmitype/StillImage" /></cc:Work></rdf:RDF></metadata><defs
   id="defs12070" /><sodipodi:namedview
   pagecolor="#ffffff"
   bordercolor="#666666"
   borderopacity="1"
   objecttolerance="10"
   gridtolerance="10"
   guidetolerance="10"
   inkscape:pageopacity="0"
   inkscape:pageshadow="2"
   inkscape:window-width="940"
   inkscape:window-height="1027"
   id="namedview12068"
   showgrid="false"
   inkscape:zoom="0.4609375"
   inkscape:cx="345.71234"
   inkscape:cy="256"
   inkscape:window-x="964"
   inkscape:window-y="37"
   inkscape:window-maximized="0"
   inkscape:current-layer="g12033" />
<g
   id="g12035">
	<g
   id="g12033">
		<path
   style="fill:#6f6f6f;stroke-width:0.94720054"
   d="m 239.71038,10.858567 c -29.28633,0.148959 -56.22821,23.158167 -61.13883,51.996129 -0.0359,5.52244 -8.11936,1.523852 -11.81411,2.734301 -21.6593,0.35718 -43.3802,-0.676875 -65.00719,0.438452 -25.743961,2.814896 -47.041084,26.38176 -47.173172,52.292131 -1.722118,22.32277 11.67841,44.77809 32.328768,53.53532 1.502767,7.1355 0.21419,16.11228 0.6438,23.95568 0.110145,75.28311 -0.218433,150.57737 0.16095,225.85367 1.489805,25.85192 23.952414,48.2976 49.805724,49.76687 68.99532,0.27998 138.01654,0.22966 207.01317,0.0247 26.01852,-1.27691 48.7205,-23.83443 50.19249,-49.83767 0.36528,-83.15398 0.0497,-166.32508 0.15538,-249.48558 20.84859,-8.52199 34.59567,-30.97499 32.97936,-53.41131 0.0752,-26.071611 -21.32469,-49.900442 -47.22991,-52.699206 -24.66109,-1.093651 -49.41288,-0.08487 -74.1055,-0.4329 -3.94837,0.612911 -2.30787,-5.374859 -3.87914,-7.978923 -7.2617,-27.587042 -34.37102,-47.8548238 -62.93179,-46.751643 z m 1.50404,28.530717 c 15.47006,-0.305619 30.26667,11.084948 34.03447,26.199713 -22.6834,-0.0059 -45.39692,0.01233 -68.06154,-0.0092 3.80702,-15.070204 18.34117,-26.419823 34.02707,-26.190463 z M 108.67851,94.136363 c 89.45257,0.139166 178.92883,-0.277651 268.36669,0.2072 13.74131,1.418578 23.92664,15.176077 22.26662,28.708317 0.0325,14.55054 -14.07514,26.56026 -28.40492,24.87142 -88.5066,-0.14037 -177.03691,0.28006 -265.5288,-0.20906 C 91.12559,146.24223 80.989285,131.70163 83.181794,117.70168 83.970887,104.7413 95.577131,93.920596 108.67851,94.136363 Z M 366.33,176.47066 c -0.14077,81.42848 0.28062,162.8807 -0.20905,244.29447 -1.43862,13.91151 -15.47685,24.10588 -29.15232,22.27588 -66.19678,-0.14162 -132.41743,0.28175 -198.59945,-0.20906 -13.89169,-1.4488 -24.11909,-15.47575 -22.27216,-29.15786 0,-79.06781 0,-158.13561 0,-237.20343 83.41098,0 166.82198,0 250.23298,0 z"
   id="path12025"
   inkscape:connector-curvature="0" />
		<path
   style="fill:#6f6f6f;stroke-width:0.982081"
   d="m 171.68644,247.47379 c -9.34676,0.15644 -15.74032,9.88805 -14.08673,18.71133 0.12351,47.62701 -0.24401,95.27903 0.17839,142.89087 1.20764,10.97136 15.91803,16.52794 24.07249,9.08425 8.41759,-6.81887 4.47469,-18.88392 5.34774,-28.08138 -0.12439,-43.37127 0.2452,-86.76784 -0.17839,-130.12381 -1.03795,-7.31439 -7.95054,-12.95705 -15.3335,-12.48126 z"
   id="path12027"
   inkscape:connector-curvature="0" />
		<path
   style="fill:#6f6f6f;stroke-width:0.982081"
   d="m 240.50116,247.47379 c -9.34649,0.15616 -15.74067,9.88817 -14.08673,18.71133 0.12352,47.62701 -0.24401,95.27903 0.17839,142.89087 1.80504,17.56489 30.37412,15.34227 29.42023,-2.30176 -0.12333,-48.93642 0.24377,-97.8982 -0.17838,-146.81918 -1.03735,-7.3141 -7.95101,-12.95694 -15.33351,-12.48126 z"
   id="path12029"
   inkscape:connector-curvature="0" />
		<path
   style="fill:#6f6f6f;stroke-width:0.982081"
   d="m 309.31588,247.47379 c -9.34711,0.1553 -15.74314,9.88713 -14.08672,18.71133 0.12354,47.62499 -0.24406,95.27581 0.17838,142.88511 1.19856,10.97321 15.91664,16.53606 24.07058,9.09001 8.41933,-6.81787 4.47366,-18.8842 5.34774,-28.08138 -0.12442,-43.37124 0.24524,-86.76804 -0.17839,-130.12381 -1.03674,-7.31321 -7.95012,-12.95658 -15.33159,-12.48126 z"
   id="path12031"
   inkscape:connector-curvature="0" />
	</g>
</g>
<g
   id="g12037">
</g>
<g
   id="g12039">
</g>
<g
   id="g12041">
</g>
<g
   id="g12043">
</g>
<g
   id="g12045">
</g>
<g
   id="g12047">
</g>
<g
   id="g12049">
</g>
<g
   id="g12051">
</g>
<g
   id="g12053">
</g>
<g
   id="g12055">
</g>
<g
   id="g12057">
</g>
<g
   id="g12059">
</g>
<g
   id="g12061">
</g>
<g
   id="g12063">
</g>
<g
   id="g12065">
</g>
</svg>