<svg xmlns:dc="http://purl.org/dc/elements/1.1/" xmlns:cc="http://creativecommons.org/ns#" xmlns:rdf="http://www.w3.org/1999/02/22-rdf-syntax-ns#" xmlns:svg="http://www.w3.org/2000/svg" xmlns="http://www.w3.org/2000/svg" xmlns:sodipodi="http://sodipodi.sourceforge.net/DTD/sodipodi-0.dtd" xmlns:inkscape="http://www.inkscape.org/namespaces/inkscape" width="131" height="148" viewBox="0 0 131 148" fill="none" version="1.1" id="svg5119" sodipodi:docname="cpy.svg" inkscape:version="1.0.2 (e86c870879, 2021-01-15)">
  <metadata id="metadata5123">
    <rdf:RDF>
      <cc:Work rdf:about="">
        <dc:format>image/svg+xml</dc:format>
        <dc:type rdf:resource="http://purl.org/dc/dcmitype/StillImage"/>
        <dc:title/>
      </cc:Work>
    </rdf:RDF>
  </metadata>
  <sodipodi:namedview pagecolor="#ffffff" bordercolor="#666666" borderopacity="1" objecttolerance="10" gridtolerance="10" guidetolerance="10" inkscape:pageopacity="0" inkscape:pageshadow="2" inkscape:window-width="950" inkscape:window-height="1044" id="namedview5121" showgrid="false" inkscape:zoom="6.027027" inkscape:cx="39.840845" inkscape:cy="71.278574" inkscape:window-x="962" inkscape:window-y="4" inkscape:window-maximized="0" inkscape:current-layer="svg5119"/>
  <path d="M118.247 36.2464C120.511 36.2464 122.347 34.4108 122.347 32.1464C122.347 29.882 120.511 28.0464 118.247 28.0464C115.982 28.0464 114.147 29.882 114.147 32.1464C114.147 34.4108 115.982 36.2464 118.247 36.2464Z" fill="#909090" id="path5065"/>
  <path d="M124.247 20.2465C125.793 20.2465 127.047 18.9929 127.047 17.4465C127.047 15.9001 125.793 14.6465 124.247 14.6465C122.7 14.6465 121.447 15.9001 121.447 17.4465C121.447 18.9929 122.7 20.2465 124.247 20.2465Z" fill="#909090" id="path5067"/>
  <path d="M22.8469 36.1464C24.3933 36.1464 25.6469 34.8928 25.6469 33.3464C25.6469 31.8 24.3933 30.5464 22.8469 30.5464C21.3005 30.5464 20.0469 31.8 20.0469 33.3464C20.0469 34.8928 21.3005 36.1464 22.8469 36.1464Z" fill="#909090" id="path5069"/>
  <path d="M5.74687 90.1466C8.61876 90.1466 10.9469 87.8185 10.9469 84.9466C10.9469 82.0747 8.61876 79.7466 5.74687 79.7466C2.87499 79.7466 0.546875 82.0747 0.546875 84.9466C0.546875 87.8185 2.87499 90.1466 5.74687 90.1466Z" fill="#909090" id="path5071"/>
  <g filter="url(#filter0_d)" id="g5075">
    <path d="M108.076 46.2575L108.876 110.658C108.876 112.858 107.076 114.558 104.876 114.558H42.0762C39.8762 114.558 38.0762 112.758 38.0762 110.658V27.8575C38.0762 25.6575 39.8762 23.9575 42.0762 23.9575H87.5762L108.076 46.2575Z" fill="#ffffff" id="path5073"/>
  </g>
  <path d="M70.7761 37.4574H48.6761C47.9761 37.4574 47.3761 36.8574 47.3761 36.1574C47.3761 35.4574 47.9761 34.8574 48.6761 34.8574H70.7761C71.4761 34.8574 72.0761 35.4574 72.0761 36.1574C72.0761 36.8574 71.4761 37.4574 70.7761 37.4574Z" fill="#f2f3f5" id="path5077"/>
  <path d="M60.2761 44.6576H48.6761C47.9761 44.6576 47.3761 44.0576 47.3761 43.3576C47.3761 42.6576 47.9761 42.0576 48.6761 42.0576H60.1761C60.8761 42.0576 61.4761 42.6576 61.4761 43.3576C61.4761 44.0576 60.8761 44.6576 60.2761 44.6576Z" fill="#f2f3f5" id="path5079"/>
  <path d="M87.5762 23.9575V41.7575C87.5762 44.2575 89.7762 46.2575 92.2762 46.2575H108.076" fill="#f2f3f5" id="path5081"/>
  <path d="M57.3094 37.2227L62.061 20.4627L81.5776 22.7107L74.7637 33.6331L80.0415 37.8498L68.6787 62.7035L69.3118 43.4619L57.3094 37.2227Z" fill="var(--bg-color_" id="path5083"/>
  <defs id="defs5117">
    <filter id="filter0_d" x="16.0762" y="12.9575" width="114.8" height="134.6" filterUnits="userSpaceOnUse" color-interpolation-filters="sRGB">
      <feFlood flood-opacity="0" result="BackgroundImageFix" id="feFlood5097"/>
      <feColorMatrix in="SourceAlpha" type="matrix" values="0 0 0 0 0 0 0 0 0 0 0 0 0 0 0 0 0 0 127 0" id="feColorMatrix5099"/>
      <feOffset dy="11" id="feOffset5101"/>
      <feGaussianBlur stdDeviation="11" id="feGaussianBlur5103"/>
      <feColorMatrix type="matrix" values="0 0 0 0 0.397708 0 0 0 0 0.47749 0 0 0 0 0.575 0 0 0 0.27 0" id="feColorMatrix5105"/>
      <feBlend mode="normal" in2="BackgroundImageFix" result="effect1_dropShadow" id="feBlend5107"/>
      <feBlend mode="normal" in="SourceGraphic" in2="effect1_dropShadow" result="shape" id="feBlend5109"/>
    </filter>
    <linearGradient id="paint0_linear" x1="73.4531" y1="21.8619" x2="73.4531" y2="115.534" gradientUnits="userSpaceOnUse">
      <stop stop-color="#FDFEFF" id="stop5112"/>
      <stop offset="0.9964" stop-color="#ECF0F5" id="stop5114"/>
    </linearGradient>
  </defs>
  <path d="m 112.63668,120.8349 c -1,0 -2,-0.4 -2.8,-1.3 l -16.699599,-16.7003 -0.6,0.4 c -5.4,4 -11.7,6.1 -18.1,6.1 -7.7,0 -15.4,-3.1 -21.1,-8.5 -6,-5.699997 -9.3,-13.399997 -9.3,-21.799997 0,-16.7 13.6,-30.3 30.3,-30.3 11.4,0 21.4,6 26.799999,16.2 5.2996,10.1 4.5996,21.9 -1.899999,31.4 l -0.4,0.6 16.799599,16.799997 c 1.7,1.7 1.3,3.4003 1,4.3003 -0.8,1.6 -2.4,2.8 -4,2.8 z M 74.337081,57.034603 c -12.2,0 -22,9.9 -22,22 0,13.8 11.3,22.099997 22.3,22.099997 6.7,0 12.8,-2.999997 17.1,-8.399997 5.3,-6.6 6.2,-15.5 2.5,-23.2 -3.8,-7.7 -11.4,-12.5 -19.9,-12.5 z" fill="#57595A" id="path4523"/>
  <path d="m 64.837081,82.634703 c 1.3,0 2.4,-1.1 2.4,-2.4 0,-1.3 -1.1,-2.4 -2.4,-2.4 -1.3,0 -2.4,1.1 -2.4,2.4 0,1.3 1.1,2.4 2.4,2.4 z" fill="#909090" id="path4525"/>
  <path d="m 83.237081,82.634703 c 1.3,0 2.4,-1.1 2.4,-2.4 0,-1.3 -1.1,-2.4 -2.4,-2.4 -1.3,0 -2.4,1.1 -2.4,2.4 0,1.4 1.1,2.4 2.4,2.4 z" fill="#909090" id="path4527"/>
  <path d="m 64.743281,72.294503 -5.2795,2.8505 0.7127,1.3199 5.2794,-2.8506 z" fill="#909090" id="path4529"/>
  <path d="m 82.910681,72.256703 -0.7125,1.32 5.28,2.85 0.7125,-1.32 z" fill="#909090" id="path4531"/>
  <path d="m 74.036981,88.234703 c 1.5464,0 2.8,-0.9402 2.8,-2.1 0,-1.1598 -1.2536,-2.1 -2.8,-2.1 -1.5464,0 -2.8,0.9402 -2.8,2.1 0,1.1598 1.2536,2.1 2.8,2.1 z" fill="#909090" id="path4533"/>
</svg>
