<?xml version="1.0" encoding="UTF-8" standalone="no"?>
<svg xmlns="http://www.w3.org/2000/svg" width="300" height="170" viewBox="0 0 300 170" fill="none">
  <path
     d="m 185.79369,58.561964 c 2.264,0 4.1,-1.8356 4.1,-4.1 0,-2.2644 -1.836,-4.1 -4.1,-4.1 -2.265,0 -4.1,1.8356 -4.1,4.1 0,2.2644 1.835,4.1 4.1,4.1 z"
     fill="#909090"
     id="path5065"
     style="fill:#909090;fill-opacity:0.2" />
  <path
     d="m 191.79369,42.562064 c 1.546,0 2.8,-1.2536 2.8,-2.8 0,-1.5464 -1.254,-2.8 -2.8,-2.8 -1.547,0 -2.8,1.2536 -2.8,2.8 0,1.5464 1.253,2.8 2.8,2.8 z"
     fill="#909090"
     id="path5067"
     style="fill:#909090;fill-opacity:0.2" />
  <path
     d="m 90.393595,58.461964 c 1.5464,0 2.8,-1.2536 2.8,-2.8 0,-1.5464 -1.2536,-2.8 -2.8,-2.8 -1.5464,0 -2.8,1.2536 -2.8,2.8 0,1.5464 1.2536,2.8 2.8,2.8 z"
     fill="#909090"
     id="path5069"
     style="fill:#909090;fill-opacity:0.2" />
  <path
     d="m 73.293565,112.46216 c 2.87189,0 5.20003,-2.3281 5.20003,-5.2 0,-2.8719 -2.32814,-5.2 -5.20003,-5.2 -2.87188,0 -5.199995,2.3281 -5.199995,5.2 0,2.8719 2.328115,5.2 5.199995,5.2 z"
     fill="#909090"
     id="path5071"
     style="fill:#909090;fill-opacity:0.2" />
  <g
     filter="url(#filter0_d)"
     id="g5075"
     transform="translate(67.546695,22.315564)">
    <path
       d="m 108.076,46.2575 0.8,64.4005 c 0,2.2 -1.8,3.9 -4,3.9 H 42.0762 c -2.2,0 -4,-1.8 -4,-3.9 V 27.8575 c 0,-2.2 1.8,-3.9 4,-3.9 h 45.5 z"
       fill="#ffffff"
       id="path5073" />
  </g>
  <path
     d="m 138.32279,59.772964 h -22.1 c -0.7,0 -1.3,-0.6 -1.3,-1.3 0,-0.7 0.6,-1.3 1.3,-1.3 h 22.1 c 0.7,0 1.3,0.6 1.3,1.3 0,0.7 -0.6,1.3 -1.3,1.3 z"
     fill="#f2f3f5"
     id="path5077"
     style="fill:#f2f3f5;fill-opacity:1" />
  <path
     d="m 127.82279,66.973164 h -11.6 c -0.7,0 -1.3,-0.6 -1.3,-1.3 0,-0.7 0.6,-1.3 1.3,-1.3 h 11.5 c 0.7,0 1.3,0.6 1.3,1.3 0,0.7 -0.6,1.3 -1.2,1.3 z"
     fill="#f2f3f5"
     id="path5079" />
  <path
     d="m 155.12289,46.273064 v 17.8 c 0,2.5 2.2,4.5 4.7,4.5 h 15.7998"
     fill="#f2f3f5"
     id="path5081" />
  <path
     d="m 124.85609,59.538264 4.7516,-16.76 19.5166,2.248 -6.8139,10.9224 5.2778,4.2167 -11.3628,24.8537 0.6331,-19.2416 z"
     fill="var(--bg-color_"
     id="path5083" />
  <defs
     id="defs5117">
    <filter
       id="filter0_d"
       x="16.0762"
       y="12.9575"
       width="114.8"
       height="134.60001"
       filterUnits="userSpaceOnUse"
       color-interpolation-filters="sRGB">
      <feFlood
         flood-opacity="0"
         result="BackgroundImageFix"
         id="feFlood5097" />
      <feColorMatrix
         in="SourceAlpha"
         type="matrix"
         values="0 0 0 0 0 0 0 0 0 0 0 0 0 0 0 0 0 0 127 0"
         id="feColorMatrix5099" />
      <feOffset
         dy="11"
         id="feOffset5101" />
      <feGaussianBlur
         stdDeviation="11"
         id="feGaussianBlur5103" />
      <feColorMatrix
         type="matrix"
         values="0 0 0 0 0.397708 0 0 0 0 0.47749 0 0 0 0 0.575 0 0 0 0.27 0"
         id="feColorMatrix5105" />
      <feBlend
         mode="normal"
         in2="BackgroundImageFix"
         result="effect1_dropShadow"
         id="feBlend5107" />
      <feBlend
         mode="normal"
         in="SourceGraphic"
         in2="effect1_dropShadow"
         result="shape"
         id="feBlend5109" />
    </filter>
    <linearGradient
       id="paint0_linear"
       x1="73.453102"
       y1="21.8619"
       x2="73.453102"
       y2="115.534"
       gradientUnits="userSpaceOnUse">
      <stop
         stop-color="#FDFEFF"
         id="stop5112" />
      <stop
         offset="0.9964"
         stop-color="#ECF0F5"
         id="stop5114" />
    </linearGradient>
  </defs>
  <path
     d="m 180.18337,143.15046 c -1,0 -2,-0.4 -2.8,-1.3 l -16.6996,-16.7003 -0.6,0.4 c -5.4,4 -11.7,6.1 -18.1,6.1 -7.7,0 -15.4,-3.1 -21.1,-8.5 -5.99999,-5.69999 -9.29999,-13.39999 -9.29999,-21.79999 0,-16.700003 13.59999,-30.300003 30.29999,-30.300003 11.4,0 21.4,6 26.8,16.2 5.2996,10.1 4.5996,21.900003 -1.9,31.400003 l -0.4,0.6 16.7996,16.79999 c 1.7,1.7 1.3,3.4003 1,4.3003 -0.8,1.6 -2.4,2.8 -4,2.8 z m -38.2996,-63.800293 c -12.2,0 -21.99999,9.9 -21.99999,22.000003 0,13.8 11.29999,22.09999 22.29999,22.09999 6.7,0 12.8,-2.99999 17.1,-8.39999 5.3,-6.6 6.2,-15.500003 2.5,-23.200003 -3.8,-7.7 -11.4,-12.5 -19.9,-12.5 z"
     fill="#57595a"
     id="path4523" />
  <path
     d="m 132.38377,104.95027 c 1.3,0 2.4,-1.1 2.4,-2.4 0,-1.3 -1.1,-2.4 -2.4,-2.4 -1.3,0 -2.4,1.1 -2.4,2.4 0,1.3 1.1,2.4 2.4,2.4 z"
     fill="#909090"
     id="path4525" />
  <path
     d="m 150.78377,104.95027 c 1.3,0 2.4,-1.1 2.4,-2.4 0,-1.3 -1.1,-2.4 -2.4,-2.4 -1.3,0 -2.4,1.1 -2.4,2.4 0,1.4 1.1,2.4 2.4,2.4 z"
     fill="#909090"
     id="path4527" />
  <path
     d="m 132.28997,94.610067 -5.2795,2.8505 0.7127,1.3199 5.2794,-2.8506 z"
     fill="#909090"
     id="path4529" />
  <path
     d="m 150.45737,94.572267 -0.7125,1.32 5.28,2.85 0.7125,-1.32 z"
     fill="#909090"
     id="path4531" />
  <path
     d="m 141.58367,110.55027 c 1.5464,0 2.8,-0.9402 2.8,-2.1 0,-1.1598 -1.2536,-2.1 -2.8,-2.1 -1.5464,0 -2.8,0.9402 -2.8,2.1 0,1.1598 1.2536,2.1 2.8,2.1 z"
     fill="#909090"
     id="path4533" />
  <path
     d="M 12.082154,141.54408 H 7.1821544 c -0.3,0 -0.6,0.1 -0.7,0.4 l -2.4,4.3 c -0.1,0.3 -0.1,0.6 0,0.9 l 2.4,4.3 c 0.1,0.3 0.4,0.4 0.7,0.4 h 4.8999996 c 0.3,0 0.6,-0.1 0.7,-0.4 l 2.4,-4.3 c 0.1,-0.3 0.1,-0.6 0,-0.9 l -2.4,-4.3 c -0.1,-0.3 -0.4,-0.4 -0.7,-0.4 z"
     id="path4"
     style="fill:#909090;fill-opacity:0.2" />
  <path
     class="file"
     d="m 271.09259,11.652312 -7.37019,3.583918 c -0.76194,0.431116 -1.70491,0.583501 -2.57246,0.605222 -0.86754,0.02172 -1.78791,-0.161244 -2.63285,-0.474867 -1.61444,-0.757898 -3.0554,-2.112442 -3.93815,-3.841509 0,0 -1.50896,-3.3100372 -3.07075,-6.8247745 l -0.23388,-0.4834368 -15.96253,7.5074693 c -2.54223,1.145271 -3.61329,4.185144 -2.51928,6.732998 l 11.52855,25.644074 c 1.09402,2.547855 4.089,3.580205 6.63125,2.434931 l 25.59584,-12.049402 c 2.54224,-1.145275 3.61331,-4.185143 2.5193,-6.732998 L 271.70365,11.48249 Z"
     style="clip-rule:evenodd;fill:#909090;fill-opacity:0.2;fill-rule:evenodd;stroke-width:1.49471"
     id="path6" />
  <path
     class="file"
     d="m 259.41468,12.923368 c -1.10144,-0.461713 -1.97659,-1.31538 -2.62543,-2.561005 l -0.0528,-0.2047 -0.28668,-0.6881472 -1.04119,-2.343158 -0.57341,-1.376276 13.00599,4.7217702 -5.15993,2.421202 c -0.48277,0.243866 -1.01841,0.283028 -1.55401,0.322196 -0.53564,0.03916 -1.12406,-0.126364 -1.71249,-0.291899 z"
     style="clip-rule:evenodd;fill:#909090;fill-opacity:0.2;fill-rule:evenodd;stroke-width:1.49471"
     id="path8" />
  <path
     d="m 23.944403,17.635563 c -2.077419,1.199415 -2.474669,3.832798 -1.303579,5.861202 l 11.157969,19.326133 c 1.26869,2.197435 3.53196,2.919135 5.66264,1.688975 l 24.34312,-14.054491 c 1.38496,-0.79961 1.92411,-3.064169 0.62288,-5.317939 L 54.928543,8.6868627 c -1.04099,-1.803011 -3.07654,-2.130313 -4.46146,-1.330734 l -12.51782,7.2271693 -4.94944,-2.175869 z"
     id="path16"
     style="fill:#909090;fill-opacity:0.2;stroke-width:0.632594" />
  <g
     id="g20"
     transform="translate(243.28104,131.07346)"
     style="fill:#909090;fill-opacity:0.2">
    <path
       d="m 42.4,23.2 8.6,9.9 c 0.3,0.3 0.1,0.8 -0.3,0.9 L 38,36.2 c -0.4,0.1 -0.7,-0.3 -0.6,-0.7 l 4.1,-12.1 c 0.1,-0.4 0.7,-0.5 0.9,-0.2 z"
       id="path18"
       style="fill:#909090;fill-opacity:0.2" />
  </g>
  <path
     d="m 223.0733,92.373031 -2,1 c -0.3,0.1 -0.6,0 -0.8,-0.3 l -1,-2 c -0.1,-0.3 0,-0.6 0.3,-0.8 l 2,-1 c 0.3,-0.1 0.6,0 0.8,0.3 l 1,2 c 0.1,0.3 0,0.7 -0.3,0.8 z"
     id="path10"
     style="fill:#909090;fill-opacity:0.2" />
</svg>
