<svg xmlns="http://www.w3.org/2000/svg" width="146" height="139" viewBox="0 0 146 139" fill="none">

<path d="M34.8913 36.6948H106.991C109.891 36.6948 112.091 38.8948 112.091 41.7948V87.4948C112.091 90.3948 109.891 92.5948 106.991 92.5948H34.8913C31.9913 92.5948 29.7913 90.3948 29.7913 87.4948V41.7948C29.7913 38.8948 32.1913 36.6948 34.8913 36.6948Z" fill="#909090"/>


<g filter="url(#filter0_d)">
<path d="M117.691 46.4948H87.2911C84.2911 46.4948 81.4911 47.4948 79.1911 49.3948L71.1911 55.8948C68.9911 57.6948 66.0911 58.7948 63.0911 58.7948H28.6911C25.1911 58.7948 22.3911 61.6948 22.3911 65.0948C22.3911 65.3948 22.3911 65.6948 22.4911 65.9948L28.7911 99.6948C29.2911 102.895 31.9911 105.195 35.0911 105.195H108.691C111.891 105.195 114.491 102.995 114.991 99.7948L123.891 53.6948C124.491 50.1948 122.191 47.0948 118.691 46.3948C118.391 46.4948 117.991 46.4948 117.691 46.4948Z" fill="#ffffff"/>
</g>
<path d="M58.8913 81.3949C60.6913 81.3949 62.1913 79.8949 62.1913 78.0949C62.1913 76.2949 60.6913 74.7949 58.8913 74.7949C57.0913 74.7949 55.5913 76.2949 55.5913 78.0949C55.5913 79.8949 57.0913 81.3949 58.8913 81.3949Z" fill="#909090"/>
<path d="M84.5913 81.2948C86.3913 81.2948 87.8913 79.7948 87.8913 77.9948C87.8913 76.1948 86.3913 74.6948 84.5913 74.6948C82.7913 74.6948 81.2913 76.1948 81.2913 77.9948C81.2913 79.8948 82.7913 81.2948 84.5913 81.2948Z" fill="#909090"/>


<path d="M67.6912 57.6948C64.0912 50.6948 63.2912 42.2948 65.6912 34.6948C67.9912 27.0948 73.4912 20.5948 80.2912 16.8948C82.3912 15.7948 84.7912 14.8948 87.1912 14.7948C89.5912 14.6948 92.1912 15.4948 93.7912 17.4948C95.3912 19.2948 95.6912 22.2948 94.3912 24.2948C92.9912 26.1948 90.1912 26.9948 87.8912 26.3948C84.1912 25.6948 81.1912 22.7948 80.2912 19.2948C79.3912 15.7948 80.5912 11.6948 83.3912 9.3948C85.1912 7.7948 87.6912 6.8948 89.9912 6.1948C101.191 2.8948 113.391 2.4948 124.791 4.9948" stroke="#57595A" stroke-width="2" stroke-miterlimit="10" stroke-dasharray="4 4"/>
<path d="M74.8912 84.8948H68.6912V86.3948H74.8912V84.8948Z" fill="#909090"/>
<path d="M130.791 2.39475C130.691 3.89475 130.591 5.29475 129.491 5.59475C128.391 5.89475 127.891 4.89475 127.191 3.49475C126.491 2.19475 126.891 0.794754 128.091 0.494754C129.191 0.194754 130.991 0.594754 130.791 2.39475Z" fill="#909090"/>
<path d="M129.591 9.59477C129.891 7.79477 130.191 6.79477 129.191 6.29477C128.091 5.79477 127.391 6.69477 126.191 7.89477C125.191 8.99477 125.791 10.5948 126.791 11.0948C127.991 11.6948 129.291 11.0948 129.591 9.59477Z" fill="#909090"/>
<path d="M130.991 6.29485C130.891 6.99485 130.391 7.49485 129.691 7.59485C129.391 7.59485 129.091 7.59485 128.691 7.59485C127.291 7.39485 126.191 6.49485 126.291 5.59485C126.391 4.69485 127.691 4.19485 129.291 4.39485C129.591 4.39485 129.891 4.49485 130.091 4.59485C130.691 4.79485 131.091 5.49485 130.991 6.29485C130.991 6.29485 130.991 6.19485 130.991 6.29485Z" fill="#57595A"/>
<path d="M19.3911 34.3948C19.3911 32.6948 19.3911 30.9948 20.5911 30.4948C21.8911 29.9948 22.5911 31.1948 23.5911 32.8948C24.4911 34.3948 24.0911 35.9948 22.7911 36.4948C21.6911 36.9948 19.3911 36.6948 19.3911 34.3948Z" fill="#909090"/>
<path d="M20.0911 25.9949C19.8911 28.0949 19.5911 29.2949 20.8911 29.7949C22.1911 30.2949 22.8911 29.1949 24.1911 27.5949C25.1911 26.1949 24.4911 24.3949 23.1911 23.8949C21.8911 23.3949 20.2911 24.2949 20.0911 25.9949Z" fill="#909090"/>
<path d="M18.9912 29.9949C18.9912 29.1949 19.5912 28.5949 20.2912 28.4949C20.5912 28.3949 20.9912 28.3949 21.3912 28.4949C22.9912 28.5949 24.3912 29.4949 24.2912 30.4949C24.1912 31.4949 22.8912 32.1949 21.1912 31.9949C20.8912 31.9949 20.5912 31.8949 20.2912 31.7949C19.4912 31.6949 18.9912 30.8949 18.9912 29.9949Z" fill="#57595A"/>
<path d="M25.7913 30.2949C36.2913 30.2949 55.6913 36.3949 55.9913 58.7949" stroke="#57595A" stroke-width="2" stroke-miterlimit="10" stroke-dasharray="4 4"/>
<defs>
<filter id="filter0_d" x="0.391113" y="35.3948" width="145.595" height="102.8" filterUnits="userSpaceOnUse" color-interpolation-filters="sRGB">
<feFlood flood-opacity="0" result="BackgroundImageFix"/>
<feColorMatrix in="SourceAlpha" type="matrix" values="0 0 0 0 0 0 0 0 0 0 0 0 0 0 0 0 0 0 127 0"/>
<feOffset dy="11"/>
<feGaussianBlur stdDeviation="11"/>
<feColorMatrix type="matrix" values="0 0 0 0 0.397708 0 0 0 0 0.47749 0 0 0 0 0.575 0 0 0 0.27 0"/>
<feBlend mode="normal" in2="BackgroundImageFix" result="effect1_dropShadow"/>
<feBlend mode="normal" in="SourceGraphic" in2="effect1_dropShadow" result="shape"/>
</filter>



</defs>
</svg>
