<?xml version="1.0" encoding="UTF-8" standalone="no"?>
<svg xmlns="http://www.w3.org/2000/svg" height="16" width="16">
  <g transform="matrix(0.86666431,0,0,0.86667,-172.04578,-864.32759)" style="fill:#75bbd9;fill-opacity:0.94117647;fill-rule:evenodd">
    <path style="fill:#75bbd9;fill-opacity:0.94117647;fill-rule:evenodd" d="m 200.2,999.72 c -0.28913,0 -0.53125,0.2421 -0.53125,0.5312 v 12.784 c 0,0.2985 0.23264,0.5312 0.53125,0.5312 h 15.091 c 0.2986,0 0.53124,-0.2327 0.53124,-0.5312 l 4e-4,-10.474 c 0,-0.2889 -0.24211,-0.5338 -0.53124,-0.5338 l -7.5457,5e-4 -2.3076,-2.30783 z" />
  </g>
  <g transform="matrix(0.86667,0,0,0.86667,-172.04692,-864.7834)" style="fill:#9ad1ed;fill-opacity:1;fill-rule:evenodd">
    <path style="fill:#9ad1ed;fill-opacity:1;fill-rule:evenodd" d="m 200.2,999.72 c -0.28913,0 -0.53125,0.2421 -0.53125,0.5312 v 12.784 c 0,0.2985 0.23264,0.5312 0.53125,0.5312 h 15.091 c 0.2986,0 0.53124,-0.2327 0.53124,-0.5312 l 4e-4,-10.474 c 0,-0.2889 -0.24211,-0.5338 -0.53124,-0.5338 l -7.5457,5e-4 -2.3076,-2.30783 z" />
  </g>
</svg>
