<svg xmlns="http://www.w3.org/2000/svg" viewBox="0 0 129 129" style="fill:#6f6f6f;stroke:#6f6f6f;">
  <path d="m 51.741297,117.22165 c -2.466177,0 -4.788482,-0.96594 -6.535367,-2.69223 L 13.885528,83.208986 c -1.726339,-1.746857 -2.692249,-4.069156 -2.692249,-6.535348 0,-2.466185 0.96591,-4.788492 2.692249,-6.535368 L 66.764417,17.259402 c 3.000527,-3.000523 8.446629,-5.261167 12.700782,-5.261167 h 27.703341 c 5.09681,0 9.24816,4.151389 9.24816,9.227587 v 27.703353 c 0,4.233618 -2.26065,9.700278 -5.26116,12.700812 L 58.276658,114.50887 c -1.746869,1.74684 -4.04863,2.71278 -6.535361,2.71278 z M 79.465199,18.163668 c -2.548374,0 -6.535359,1.644105 -8.32334,3.452635 L 18.262982,74.495181 c -0.575448,0.575452 -0.883718,1.356397 -0.883718,2.178457 0,0.8426 0.328824,1.603006 0.883718,2.178453 l 31.320416,31.320439 c 0.575435,0.5754 1.356403,0.88368 2.178452,0.88368 0.842611,0 1.603015,-0.32882 2.178449,-0.88368 L 106.8192,57.293642 c 1.80851,-1.808537 3.45264,-5.774997 3.45264,-8.343889 V 21.246394 c 0,-1.705772 -1.37695,-3.082726 -3.08273,-3.082726 z" style="stroke-width:2.2;" />
  <circle cx="142.1252" cy="101.61908" r="28.324646" style="fill-opacity:0;stroke-width:20;" transform="matrix(0.38692388,0,0,0.38692388,30.309631,2.968202)" />
</svg>
