<?xml version="1.0" standalone="no"?>
<!DOCTYPE svg PUBLIC "-//W3C//DTD SVG 20010904//EN"
 "http://www.w3.org/TR/2001/REC-SVG-20010904/DTD/svg10.dtd">
<svg version="1.0" xmlns="http://www.w3.org/2000/svg"
 width="512.000000pt" height="512.000000pt" viewBox="0 0 512.000000 512.000000"
 preserveAspectRatio="xMidYMid meet">
<metadata>
Created by potrace 1.11, written by Peter Selinger 2001-2013
</metadata>
<g transform="translate(0.000000,512.000000) scale(0.100000,-0.100000)"
fill="#000000" stroke="none">
<path d="M2418 4475 c-2 -1 -28 -5 -58 -8 -255 -28 -553 -171 -763 -367 -202
-190 -366 -483 -411 -735 l-11 -60 -50 -13 c-28 -6 -63 -15 -79 -17 -16 -3
-72 -22 -125 -41 -466 -173 -794 -561 -897 -1059 -24 -116 -24 -380 0 -506 97
-511 448 -926 916 -1082 191 -64 106 -61 1520 -59 1187 2 1400 4 1476 18 260
47 432 120 631 266 173 128 326 315 419 512 100 213 134 378 129 626 -4 172
-5 182 -42 325 -84 327 -298 627 -578 812 -151 99 -368 187 -517 208 l-46 7
-17 72 c-32 137 -54 198 -122 336 -68 139 -136 234 -252 351 -164 164 -311
260 -523 337 -65 24 -191 57 -258 67 -45 7 -336 16 -342 10z m302 -480 c62
-11 209 -64 268 -96 211 -116 369 -306 442 -533 12 -37 21 -69 19 -71 -2 -1
-51 -17 -109 -35 -138 -42 -344 -144 -450 -224 -94 -71 -193 -164 -255 -241
-64 -79 -69 -85 -76 -85 -3 0 -20 20 -38 45 -39 55 -177 196 -246 252 -162
131 -351 220 -612 289 -27 7 46 190 121 303 137 205 361 352 606 397 73 13
253 12 330 -1z m-1214 -1159 c153 -15 309 -78 440 -177 89 -66 122 -99 188
-184 186 -241 231 -467 156 -790 -105 -448 -430 -685 -945 -689 -148 -1 -236
19 -360 81 -195 97 -344 257 -439 471 -15 34 -29 70 -31 80 -1 9 -8 36 -14 59
-20 75 -26 126 -25 238 1 119 8 177 30 240 8 22 14 46 14 52 0 23 61 146 107
217 137 213 399 378 638 403 28 3 51 6 52 7 3 2 141 -3 189 -8z m2349 4 c69
-3 246 -65 330 -115 32 -19 59 -35 61 -35 23 0 192 -171 239 -241 111 -166
158 -318 159 -514 1 -148 -5 -193 -39 -300 -24 -77 -92 -214 -120 -241 -8 -9
-15 -19 -15 -23 0 -17 -157 -168 -213 -204 -89 -59 -189 -105 -290 -134 -91
-25 -97 -26 -477 -29 -830 -7 -999 -8 -1005 -3 -2 3 15 32 39 65 105 141 212
396 241 574 3 19 7 42 10 50 8 32 17 140 20 246 4 135 10 176 36 256 88 277
336 518 623 607 72 22 90 26 171 37 28 3 51 7 52 8 1 1 117 -2 178 -4z"/>
</g>
</svg>
