<svg xmlns="http://www.w3.org/2000/svg" viewBox="0 0 512 512">
  <path style="fill:#000000;fill-opacity:0.2" d="m 459.7,194.55 c 22.3,-20.5 36.3,-49.9 36.3,-82.6 0,-61.9 -50.1,-112 -112,-112 -45.3,0 -84.3,26.8 -101.9,65.5 -17.3,-2 -34.9,-2 -52.2,0 -17.6,-38.7 -56.6,-65.5 -101.9,-65.5 -61.9,0 -112,50.1 -112,112 0,32.7 14,62.1 36.3,82.6 -13,28.4 -20.3,60.1 -20.3,93.4 0,53.2 18.6,102.1 49.5,140.5 L 39,470.95 c -9.4,9.4 -9.4,24.6 0,33.9 9.4,9.4 24.6,9.4 33.9,0 l 42.5,-42.5 c 81.5,65.7 198.7,66.4 281,0 l 42.6,42.6 c 9.4,9.4 24.6,9.4 33.9,0 9.4,-9.4 9.4,-24.6 0,-33.9 l -42.5,-42.5 c 31,-38.4 49.5,-87.3 49.5,-140.5 0.1,-33.4 -7.2,-65.1 -20.2,-93.5 z M 384,47.95 c 35.3,0 64,28.7 64,64 0,15.1 -5.3,29 -14,39.9 -26.2,-34.2 -62,-60.6 -103.3,-75.2 11.4,-17.3 31,-28.7 53.3,-28.7 z m -320,64 c 0,-35.3 28.7,-64 64,-64 22.3,0 41.9,11.4 53.4,28.7 -41.4,14.6 -77.2,41 -103.3,75.2 C 69.3,140.95 64,127.05 64,111.95 Z m 192,352 c -97.3,0 -176,-78.7 -176,-176 0,-97 78.4,-176 176,-176 97.4,0 176,78.8 176,176 0,97.3 -78.7,176 -176,176 z m 46.2,-95.7 -69,-47.5 c -3.3,-2.2 -5.2,-5.9 -5.2,-9.9 v -130.9 c 0,-6.6 5.4,-12 12,-12 h 32 c 6.6,0 12,5.4 12,12 v 107.7 l 50,34.4 c 5.5,3.8 6.8,11.2 3.1,16.7 l -18.1,26.4 c -3.8,5.4 -11.3,6.8 -16.8,3.1 z" />
</svg>
