<svg xmlns="http://www.w3.org/2000/svg" viewBox="0 0 450 512">
    <path style="fill:#f2f2f2;fill-opacity:1;stroke-width:1.18205023" d="m 102.77376,57.71175 v 259.88716 h -79.7 c -17.7999996,0 -26.9165146,14.53938 -14.0999996,30.87906 L 123.17376,494.07066 c 7.62888,9.726 19.67112,9.726 27.3,0 l 114.2,-145.59269 c 12.81652,-16.33968 3.7,-30.87906 -14.1,-30.87906 h -79.8 V 57.71175 c 0,-18.58333 -13.5475,-27.48437 -24,-33.53383 -6.1592,-3.56467 -20,0 -20,0 -13.3,0 -23.86429,14.95148 -24,33.53383 z" />
    <path style="fill:#f2f2f2;fill-opacity:1;stroke-width:1.13474083" d="M 417.23298,74.09757 H 242.11439 c -17.12557,0 -30.90328,-6.7 -30.90328,-20 v -12 c 0,-13.3 13.77771,-20 30.90328,-20 h 175.11859 c 17.12557,0 30.90327,6.7 30.90327,20 v 12 c 0,13.3 -13.7777,20 -30.90327,20 z" />
    <path style="fill:#f2f2f2;fill-opacity:1;stroke-width:0.98952353" d="M 367.87619,172.09757 H 234.71087 c -13.02278,0 -23.49976,-6.7 -23.49976,-20 v -12 c 0,-13.3 10.47698,-20 23.49976,-20 h 133.16532 c 13.02279,0 23.49976,6.7 23.49976,20 v 12 c 0,13.3 -10.47697,20 -23.49976,20 z" />
    <path style="fill:#f2f2f2;fill-opacity:1;stroke-width:0.79045671" d="m 311.18259,270.09757 h -84.97576 c -8.31013,0 -14.99572,-6.7 -14.99572,-20 v -12 c 0,-13.3 6.68559,-20 14.99572,-20 h 84.97576 c 8.31013,0 14.99571,6.7 14.99571,20 v 12 c 0,13.3 -6.68558,20 -14.99571,20 z" />
</svg>
