<svg xmlns="http://www.w3.org/2000/svg" viewBox="0 0 450 512">
    <path style="fill:#f2f2f2;fill-opacity:1;stroke-width:1.18205023" d="M 102.77376,466.24703 V 206.35987 h -79.7 c -17.7999996,0 -26.9165146,-14.53938 -14.0999996,-30.87906 L 123.17376,29.888122 c 7.62888,-9.726 19.67112,-9.726 27.3,0 l 114.2,145.592688 c 12.81652,16.33968 3.7,30.87906 -14.1,30.87906 h -79.8 v 259.88716 c 0,18.58333 -13.5475,27.48437 -24,33.53383 -6.1592,3.56467 -20,0 -20,0 -13.3,0 -23.86429,-14.95148 -24,-33.53383 z" />
    <path style="fill:#f2f2f2;fill-opacity:1;stroke-width:1.13474083"
       d="M 417.23298,302.09757 H 242.11439 c -17.12557,0 -30.90328,-6.7 -30.90328,-20 v -12 c 0,-13.3 13.77771,-20 30.90328,-20 h 175.11859 c 17.12557,0 30.90327,6.7 30.90327,20 v 12 c 0,13.3 -13.7777,20 -30.90327,20 z" />
    <path style="fill:#f2f2f2;fill-opacity:1;stroke-width:1.13474083" d="M 417.23298,400.09757 H 242.11439 c -17.12557,0 -30.90328,-6.7 -30.90328,-20 v -12 c 0,-13.3 13.77771,-20 30.90328,-20 h 175.11859 c 17.12557,0 30.90327,6.7 30.90327,20 v 12 c 0,13.3 -13.7777,20 -30.90327,20 z" />
    <path style="fill:#f2f2f2;fill-opacity:1;stroke-width:1.13474083" d="M 417.23298,498.09757 H 242.11439 c -17.12557,0 -30.90328,-6.7 -30.90328,-20 v -12 c 0,-13.3 13.77771,-20 30.90328,-20 h 175.11859 c 17.12557,0 30.90327,6.7 30.90327,20 v 12 c 0,13.3 -13.7777,20 -30.90327,20 z" />
</svg>
