<?xml version="1.0" encoding="UTF-8" standalone="no"?>
<svg
   xmlns:dc="http://purl.org/dc/elements/1.1/"
   xmlns:cc="http://creativecommons.org/ns#"
   xmlns:rdf="http://www.w3.org/1999/02/22-rdf-syntax-ns#"
   xmlns:svg="http://www.w3.org/2000/svg"
   xmlns="http://www.w3.org/2000/svg"
   xmlns:sodipodi="http://sodipodi.sourceforge.net/DTD/sodipodi-0.dtd"
   xmlns:inkscape="http://www.inkscape.org/namespaces/inkscape"
   aria-hidden="true"
   data-prefix="fas"
   data-icon="arrow-alt-to-bottom"
   role="img"
   viewBox="0 0 450 512"
   class="svg-inline--fa fa-arrow-alt-to-bottom fa-w-12 fa-9x"
   version="1.1"
   id="svg7697"
   sodipodi:docname="arrow-down-double.svg"
   inkscape:version="0.92.2 2405546, 2018-03-11"
   width="450"
   height="512">
  <metadata
     id="metadata7703">
    <rdf:RDF>
      <cc:Work
         rdf:about="">
        <dc:format>image/svg+xml</dc:format>
        <dc:type
           rdf:resource="http://purl.org/dc/dcmitype/StillImage" />
        <dc:title></dc:title>
      </cc:Work>
    </rdf:RDF>
  </metadata>
  <defs
     id="defs7701" />
  <sodipodi:namedview
     pagecolor="#ffffff"
     bordercolor="#666666"
     borderopacity="1"
     objecttolerance="10"
     gridtolerance="10"
     guidetolerance="10"
     inkscape:pageopacity="0"
     inkscape:pageshadow="2"
     inkscape:window-width="1894"
     inkscape:window-height="1027"
     id="namedview7699"
     showgrid="false"
     inkscape:zoom="1.3037281"
     inkscape:cx="160.34077"
     inkscape:cy="298.0013"
     inkscape:window-x="10"
     inkscape:window-y="37"
     inkscape:window-maximized="0"
     inkscape:current-layer="layer3" />
  <g
     inkscape:groupmode="layer"
     id="layer3"
     inkscape:label="lines"
     style="display:inline">
    <path
       d="m 102.77376,57.71175 v 259.88716 h -79.7 c -17.7999996,0 -26.9165146,14.53938 -14.0999996,30.87906 L 123.17376,494.07066 c 7.62888,9.726 19.67112,9.726 27.3,0 l 114.2,-145.59269 c 12.81652,-16.33968 3.7,-30.87906 -14.1,-30.87906 h -79.8 V 57.71175 c 0,-18.58333 -13.5475,-27.48437 -24,-33.53383 -6.1592,-3.56467 -20,0 -20,0 -13.3,0 -23.86429,14.95148 -24,33.53383 z"
       class=""
       id="path7695"
       style="fill:#f2f2f2;fill-opacity:1;stroke-width:1.18205023"
       inkscape:connector-curvature="0"
       sodipodi:nodetypes="scsssssscsass" />
    <path
       sodipodi:nodetypes="sssssssss"
       inkscape:connector-curvature="0"
       style="fill:#f2f2f2;fill-opacity:1;stroke-width:1.13474083"
       id="path3632"
       class=""
       d="M 417.23298,74.09757 H 242.11439 c -17.12557,0 -30.90328,-6.7 -30.90328,-20 v -12 c 0,-13.3 13.77771,-20 30.90328,-20 h 175.11859 c 17.12557,0 30.90327,6.7 30.90327,20 v 12 c 0,13.3 -13.7777,20 -30.90327,20 z" />
    <path
       d="M 417.23298,172.09757 H 242.11439 c -17.12557,0 -30.90328,-6.7 -30.90328,-20 v -12 c 0,-13.3 13.77771,-20 30.90328,-20 h 175.11859 c 17.12557,0 30.90327,6.7 30.90327,20 v 12 c 0,13.3 -13.7777,20 -30.90327,20 z"
       class=""
       id="path3662"
       style="fill:#f2f2f2;fill-opacity:1;stroke-width:1.13474083"
       inkscape:connector-curvature="0"
       sodipodi:nodetypes="sssssssss" />
    <path
       sodipodi:nodetypes="sssssssss"
       inkscape:connector-curvature="0"
       style="fill:#f2f2f2;fill-opacity:1;stroke-width:1.13474083"
       id="path3664"
       class=""
       d="M 417.23298,270.09757 H 242.11439 c -17.12557,0 -30.90328,-6.7 -30.90328,-20 v -12 c 0,-13.3 13.77771,-20 30.90328,-20 h 175.11859 c 17.12557,0 30.90327,6.7 30.90327,20 v 12 c 0,13.3 -13.7777,20 -30.90327,20 z" />
  </g>
</svg>
