<?xml version="1.0" encoding="UTF-8" standalone="no"?>
<svg
   xmlns:dc="http://purl.org/dc/elements/1.1/"
   xmlns:cc="http://creativecommons.org/ns#"
   xmlns:rdf="http://www.w3.org/1999/02/22-rdf-syntax-ns#"
   xmlns:svg="http://www.w3.org/2000/svg"
   xmlns="http://www.w3.org/2000/svg"
   xmlns:sodipodi="http://sodipodi.sourceforge.net/DTD/sodipodi-0.dtd"
   xmlns:inkscape="http://www.inkscape.org/namespaces/inkscape"
   viewBox="0 0 448 512"
   version="1.1"
   id="svg5212"
   sodipodi:docname="calendar.svg"
   inkscape:version="0.92.2 2405546, 2018-03-11">
  <metadata
     id="metadata5218">
    <rdf:RDF>
      <cc:Work
         rdf:about="">
        <dc:format>image/svg+xml</dc:format>
        <dc:type
           rdf:resource="http://purl.org/dc/dcmitype/StillImage" />
        <dc:title></dc:title>
      </cc:Work>
    </rdf:RDF>
  </metadata>
  <defs
     id="defs5216" />
  <sodipodi:namedview
     pagecolor="#ffffff"
     bordercolor="#666666"
     borderopacity="1"
     objecttolerance="10"
     gridtolerance="10"
     guidetolerance="10"
     inkscape:pageopacity="0"
     inkscape:pageshadow="2"
     inkscape:window-width="1894"
     inkscape:window-height="1027"
     id="namedview5214"
     showgrid="false"
     inkscape:zoom="1.3037281"
     inkscape:cx="61.388101"
     inkscape:cy="240.15328"
     inkscape:window-x="10"
     inkscape:window-y="37"
     inkscape:window-maximized="0"
     inkscape:current-layer="svg5212" />
  <path
     d="M 400,64 H 352 V 12 C 352,5.4 346.6,0 340,0 h -40 c -6.6,0 -12,5.4 -12,12 V 64 H 160 V 12 C 160,5.4 154.6,0 148,0 H 108 C 101.4,0 96,5.4 96,12 V 64 H 48 C 21.5,64 0,85.5 0,112 v 352 c 0,26.5 21.5,48 48,48 h 352 c 26.5,0 48,-21.5 48,-48 V 112 C 448,85.5 426.5,64 400,64 Z m -2,404 H 50 c -3.3,0 -6.022147,-2.70007 -6,-6 V 154 h 360 v 308 c 0,3.3 -2.7,6 -6,6 z"
     id="path5210"
     style="fill:#000000;fill-opacity:0.53333336"
     inkscape:connector-curvature="0"
     sodipodi:nodetypes="scssssccsssscsssssssssssccss" />
</svg>
