<svg xmlns="http://www.w3.org/2000/svg" viewBox="0 0 51.976 51.976">
  <path style="fill:#000000;fill-opacity:0.53333285;stroke-width:1.45681119" d="m 41.00531,40.844062 c -1.137768,1.137765 -2.982088,1.137765 -4.119861,0 L 26.068628,30.027234 14.737551,41.35831 c -1.137771,1.137771 -2.982093,1.137771 -4.119861,0 -1.1377722,-1.137768 -1.1377722,-2.982088 0,-4.119861 L 21.948766,25.907372 11.131938,15.090551 c -1.1377647,-1.137771 -1.1377647,-2.983553 0,-4.119861 1.137774,-1.1377721 2.982098,-1.1377721 4.119865,0 L 26.068628,21.787512 36.369739,11.486399 c 1.137768,-1.137768 2.982093,-1.137768 4.119862,0 1.137767,1.137769 1.137767,2.982094 0,4.119862 L 30.188489,25.907372 41.00531,36.724197 c 1.137771,1.137767 1.137771,2.982091 0,4.119865 z" />
</svg>
