<?xml version="1.0" encoding="UTF-8" standalone="no"?>
<!-- Generator: Adobe Illustrator 19.0.0, SVG Export Plug-In . SVG Version: 6.00 Build 0)  -->

<svg
   xmlns:dc="http://purl.org/dc/elements/1.1/"
   xmlns:cc="http://creativecommons.org/ns#"
   xmlns:rdf="http://www.w3.org/1999/02/22-rdf-syntax-ns#"
   xmlns:svg="http://www.w3.org/2000/svg"
   xmlns="http://www.w3.org/2000/svg"
   xmlns:sodipodi="http://sodipodi.sourceforge.net/DTD/sodipodi-0.dtd"
   xmlns:inkscape="http://www.inkscape.org/namespaces/inkscape"
   version="1.1"
   id="Capa_1"
   x="0px"
   y="0px"
   viewBox="0 0 51.976 51.976"
   style="enable-background:new 0 0 51.976 51.976;"
   xml:space="preserve"
   width="512px"
   height="512px"
   sodipodi:docname="close.svg"
   inkscape:version="0.92.2 2405546, 2018-03-11"><metadata
   id="metadata1544"><rdf:RDF><cc:Work
       rdf:about=""><dc:format>image/svg+xml</dc:format><dc:type
         rdf:resource="http://purl.org/dc/dcmitype/StillImage" /><dc:title /></cc:Work></rdf:RDF></metadata><defs
   id="defs1542" /><sodipodi:namedview
   pagecolor="#ffffff"
   bordercolor="#666666"
   borderopacity="1"
   objecttolerance="10"
   gridtolerance="10"
   guidetolerance="10"
   inkscape:pageopacity="0"
   inkscape:pageshadow="2"
   inkscape:window-width="940"
   inkscape:window-height="1027"
   id="namedview1540"
   showgrid="false"
   inkscape:zoom="0.65186406"
   inkscape:cx="254.37191"
   inkscape:cy="87.860425"
   inkscape:window-x="964"
   inkscape:window-y="37"
   inkscape:window-maximized="0"
   inkscape:current-layer="g1507" />
<g
   id="g1507">
	<path
   d="m 41.00531,40.844062 c -1.137768,1.137765 -2.982088,1.137765 -4.119861,0 L 26.068628,30.027234 14.737551,41.35831 c -1.137771,1.137771 -2.982093,1.137771 -4.119861,0 -1.1377722,-1.137768 -1.1377722,-2.982088 0,-4.119861 L 21.948766,25.907372 11.131938,15.090551 c -1.1377647,-1.137771 -1.1377647,-2.983553 0,-4.119861 1.137774,-1.1377721 2.982098,-1.1377721 4.119865,0 L 26.068628,21.787512 36.369739,11.486399 c 1.137768,-1.137768 2.982093,-1.137768 4.119862,0 1.137767,1.137769 1.137767,2.982094 0,4.119862 L 30.188489,25.907372 41.00531,36.724197 c 1.137771,1.137767 1.137771,2.982091 0,4.119865 z"
   id="path1505"
   inkscape:connector-curvature="0"
   style="fill:#000000;fill-opacity:0.53333285;stroke-width:1.45681119"
   sodipodi:nodetypes="sscssscscscssscss" />
</g>
<g
   id="g1509">
</g>
<g
   id="g1511">
</g>
<g
   id="g1513">
</g>
<g
   id="g1515">
</g>
<g
   id="g1517">
</g>
<g
   id="g1519">
</g>
<g
   id="g1521">
</g>
<g
   id="g1523">
</g>
<g
   id="g1525">
</g>
<g
   id="g1527">
</g>
<g
   id="g1529">
</g>
<g
   id="g1531">
</g>
<g
   id="g1533">
</g>
<g
   id="g1535">
</g>
<g
   id="g1537">
</g>
</svg>