<svg xmlns="http://www.w3.org/2000/svg" viewBox="0 0 51.976 51.976">
  <path style="fill:#626469;fill-opacity:1;stroke-width:1.92909384" d="m 45.930983,45.603013 c -1.506621,1.506622 -3.948855,1.506622 -5.455477,0 L 26.151986,31.279492 11.147494,46.283983 c -1.5066223,1.506623 -3.948855,1.506623 -5.4554772,0 -1.5066222,-1.506621 -1.5066222,-3.948855 0,-5.455477 L 20.696508,25.824014 6.3729868,11.500494 c -1.5066221,-1.5066223 -1.5066221,-3.9507841 0,-5.4554772 1.5066223,-1.5066222 3.9488552,-1.5066222 5.4554762,0 L 26.151986,20.368538 39.792606,6.727916 c 1.506623,-1.5066223 3.948856,-1.5066223 5.455478,0 1.506623,1.5066222 1.506623,3.948855 0,5.455478 l -13.640622,13.64062 14.323521,14.323523 c 1.506623,1.506621 1.506623,3.948853 0,5.455476 z" />
</svg>
