<?xml version="1.0" encoding="UTF-8" standalone="no"?>
<!-- Generator: Adobe Illustrator 19.0.0, SVG Export Plug-In . SVG Version: 6.00 Build 0)  -->

<svg
   xmlns:dc="http://purl.org/dc/elements/1.1/"
   xmlns:cc="http://creativecommons.org/ns#"
   xmlns:rdf="http://www.w3.org/1999/02/22-rdf-syntax-ns#"
   xmlns:svg="http://www.w3.org/2000/svg"
   xmlns="http://www.w3.org/2000/svg"
   xmlns:sodipodi="http://sodipodi.sourceforge.net/DTD/sodipodi-0.dtd"
   xmlns:inkscape="http://www.inkscape.org/namespaces/inkscape"
   version="1.1"
   id="Capa_1"
   x="0px"
   y="0px"
   viewBox="0 0 51.976 51.976"
   style="enable-background:new 0 0 51.976 51.976;"
   xml:space="preserve"
   width="512px"
   height="512px"
   sodipodi:docname="close.svg"
   inkscape:version="0.92.2 2405546, 2018-03-11"><metadata
   id="metadata1544"><rdf:RDF><cc:Work
       rdf:about=""><dc:format>image/svg+xml</dc:format><dc:type
         rdf:resource="http://purl.org/dc/dcmitype/StillImage" /><dc:title></dc:title></cc:Work></rdf:RDF></metadata><defs
   id="defs1542" /><sodipodi:namedview
   pagecolor="#ffffff"
   bordercolor="#666666"
   borderopacity="1"
   objecttolerance="10"
   gridtolerance="10"
   guidetolerance="10"
   inkscape:pageopacity="0"
   inkscape:pageshadow="2"
   inkscape:window-width="1894"
   inkscape:window-height="1027"
   id="namedview1540"
   showgrid="false"
   inkscape:zoom="1.84375"
   inkscape:cx="211.15042"
   inkscape:cy="276.97144"
   inkscape:window-x="10"
   inkscape:window-y="37"
   inkscape:window-maximized="0"
   inkscape:current-layer="g1507" />
<g
   id="g1507">
	<path
   d="m 36.241,36.241 c -0.781,0.781 -2.047,0.781 -2.828,0 l -7.425,-7.425 -7.778,7.778 c -0.781,0.781 -2.047,0.781 -2.828,0 -0.781,-0.781 -0.781,-2.047 0,-2.828 l 7.778,-7.778 -7.425,-7.425 c -0.781,-0.781 -0.781,-2.048 0,-2.828 0.781,-0.781 2.047,-0.781 2.828,0 l 7.425,7.425 7.071,-7.071 c 0.781,-0.781 2.047,-0.781 2.828,0 0.781,0.781 0.781,2.047 0,2.828 l -7.071,7.071 7.425,7.425 c 0.781,0.781 0.781,2.047 0,2.828 z"
   id="path1505"
   inkscape:connector-curvature="0"
   style="fill:#000000;fill-opacity:0.53333336"
   sodipodi:nodetypes="sscssscscscssscss" />
</g>
<g
   id="g1509">
</g>
<g
   id="g1511">
</g>
<g
   id="g1513">
</g>
<g
   id="g1515">
</g>
<g
   id="g1517">
</g>
<g
   id="g1519">
</g>
<g
   id="g1521">
</g>
<g
   id="g1523">
</g>
<g
   id="g1525">
</g>
<g
   id="g1527">
</g>
<g
   id="g1529">
</g>
<g
   id="g1531">
</g>
<g
   id="g1533">
</g>
<g
   id="g1535">
</g>
<g
   id="g1537">
</g>
</svg>