<?xml version="1.0" encoding="UTF-8" standalone="no"?>
<svg xmlns="http://www.w3.org/2000/svg" viewBox="0 0 384 512">
  <path fill="#f2f2f2" d="M 360,460 H 24 C 10.7,460 0,453.3 0,440 v -12 c 0,-13.3 10.7,-20 24,-20 h 336 c 13.3,0 24,6.7 24,20 v 12 c 0,13.3 -10.7,20 -24,20 z" />
  <path fill="#f2f2f2" d="M 226.5539,234.88428 V 52.943283 c 0,-6.627 -5.373,-12 -12,-12 h -44 c -6.627,0 -12,5.373 -12,12 V 234.88428 h -52.059 c -21.382,0 -32.09,25.851 -16.971,40.971 l 86.059,86.059 c 9.373,9.373 24.569,9.373 33.941,0 l 86.059,-86.059 c 15.119,-15.119 4.411,-40.971 -16.971,-40.971 z" />
</svg>
