<?xml version="1.0" encoding="UTF-8" standalone="no"?>
<svg
   xmlns:dc="http://purl.org/dc/elements/1.1/"
   xmlns:cc="http://creativecommons.org/ns#"
   xmlns:rdf="http://www.w3.org/1999/02/22-rdf-syntax-ns#"
   xmlns:svg="http://www.w3.org/2000/svg"
   xmlns="http://www.w3.org/2000/svg"
   xmlns:sodipodi="http://sodipodi.sourceforge.net/DTD/sodipodi-0.dtd"
   xmlns:inkscape="http://www.inkscape.org/namespaces/inkscape"
   width="512px"
   version="1.1"
   height="512px"
   viewBox="0 0 64 64"
   enable-background="new 0 0 64 64"
   id="svg6280"
   sodipodi:docname="download.svg"
   inkscape:version="0.92.2 2405546, 2018-03-11">
  <metadata
     id="metadata6286">
    <rdf:RDF>
      <cc:Work
         rdf:about="">
        <dc:format>image/svg+xml</dc:format>
        <dc:type
           rdf:resource="http://purl.org/dc/dcmitype/StillImage" />
      </cc:Work>
    </rdf:RDF>
  </metadata>
  <defs
     id="defs6284" />
  <sodipodi:namedview
     pagecolor="#ffffff"
     bordercolor="#666666"
     borderopacity="1"
     objecttolerance="10"
     gridtolerance="10"
     guidetolerance="10"
     inkscape:pageopacity="0"
     inkscape:pageshadow="2"
     inkscape:window-width="1894"
     inkscape:window-height="1027"
     id="namedview6282"
     showgrid="false"
     inkscape:zoom="0.4609375"
     inkscape:cx="-128"
     inkscape:cy="256"
     inkscape:window-x="10"
     inkscape:window-y="37"
     inkscape:window-maximized="0"
     inkscape:current-layer="svg6280" />
  <g
     id="g6278"
     style="fill:#f2f2f2;fill-opacity:1">
    <g
       fill="#1D1D1B"
       id="g6276"
       style="fill:#f2f2f2;fill-opacity:1">
      <path
         d="M64,41.733c0-1.345-1.089-2.435-2.435-2.435c-1.347,0-2.436,1.09-2.436,2.435v14.115H4.946V41.733    c0-1.345-1.089-2.435-2.437-2.435c-1.346,0-2.435,1.09-2.435,2.435v15.535c0,0.18,0.067,0.338,0.103,0.507    c-0.035,0.169-0.103,0.328-0.103,0.507c0,1.345,1.089,2.436,2.435,2.436h59.056c1.346,0,2.435-1.091,2.435-2.436    c0-0.179-0.064-0.338-0.102-0.507C63.936,57.606,64,57.448,64,57.269V41.733z"
         fill="#6F6F6F"
         id="path6272"
         style="fill:#f2f2f2;fill-opacity:1" />
      <path
         d="m32.19,2.967c-1.346,0-2.437,1.091-2.437,2.436v35.576l-10.605-10.607c-0.951-0.951-2.492-0.951-3.443,0s-0.951,2.493 0,3.444l14.764,14.764c0.475,0.476 1.099,0.713 1.722,0.713 0.622,0 1.245-0.238 1.722-0.713l14.764-14.764c0.951-0.951 0.951-2.493 0-3.444-0.952-0.951-2.493-0.951-3.443,0l-10.609,10.607v-35.576c0-1.345-1.089-2.436-2.435-2.436z"
         fill="#6F6F6F"
         id="path6274"
         style="fill:#f2f2f2;fill-opacity:1" />
    </g>
  </g>
</svg>
