<svg xmlns="http://www.w3.org/2000/svg" viewBox="0 0 64 64">
  <path style="fill:#6F6F6F;fill-opacity:1" d="M64,41.733c0-1.345-1.089-2.435-2.435-2.435c-1.347,0-2.436,1.09-2.436,2.435v14.115H4.946V41.733    c0-1.345-1.089-2.435-2.437-2.435c-1.346,0-2.435,1.09-2.435,2.435v15.535c0,0.18,0.067,0.338,0.103,0.507    c-0.035,0.169-0.103,0.328-0.103,0.507c0,1.345,1.089,2.436,2.435,2.436h59.056c1.346,0,2.435-1.091,2.435-2.436    c0-0.179-0.064-0.338-0.102-0.507C63.936,57.606,64,57.448,64,57.269V41.733z" />
  <path style="fill:#6F6F6F;fill-opacity:1" d="m32.19,2.967c-1.346,0-2.437,1.091-2.437,2.436v35.576l-10.605-10.607c-0.951-0.951-2.492-0.951-3.443,0s-0.951,2.493 0,3.444l14.764,14.764c0.475,0.476 1.099,0.713 1.722,0.713 0.622,0 1.245-0.238 1.722-0.713l14.764-14.764c0.951-0.951 0.951-2.493 0-3.444-0.952-0.951-2.493-0.951-3.443,0l-10.609,10.607v-35.576c0-1.345-1.089-2.436-2.435-2.436z" />
</svg>
