<svg xmlns="http://www.w3.org/2000/svg" viewBox="0 0 438.543 438.543">
  <g transform="matrix(0.729,0,0,0.729,59.422576,59.422441)">
    <path style="fill:#f2f2f2;fill-opacity:1" d="m 407.42,159.029 c 3.62,3.616 7.898,5.428 12.847,5.428 2.282,0 4.668,-0.476 7.139,-1.429 7.426,-3.235 11.136,-8.853 11.136,-16.846 V 18.276 c 0,-4.949 -1.807,-9.231 -5.428,-12.847 -3.61,-3.617 -7.898,-5.424 -12.847,-5.424 H 292.36 c -7.991,0 -13.607,3.805 -16.848,11.419 -3.23,7.423 -1.902,13.99 4,19.698 L 320.623,72.234 219.271,173.589 117.917,72.231 159.029,31.119 c 5.901,-5.708 7.232,-12.275 3.999,-19.698 C 159.789,3.807 154.175,0 146.182,0 H 18.276 C 13.324,0 9.041,1.809 5.425,5.426 1.808,9.042 0.001,13.324 0.001,18.273 V 146.18 c 0,7.996 3.809,13.61 11.419,16.846 2.285,0.948 4.57,1.429 6.855,1.429 4.948,0 9.229,-1.812 12.847,-5.427 L 72.234,117.919 173.588,219.273 72.234,320.622 31.122,279.509 c -5.711,-5.903 -12.275,-7.231 -19.702,-4.001 -7.614,3.241 -11.419,8.856 -11.419,16.854 v 127.906 c 0,4.948 1.807,9.229 5.424,12.847 3.619,3.614 7.902,5.421 12.851,5.421 h 127.906 c 7.996,0 13.61,-3.806 16.846,-11.416 3.234,-7.427 1.903,-13.99 -3.999,-19.705 L 117.917,366.309 219.271,264.95 320.624,366.311 279.51,407.421 c -5.899,5.708 -7.228,12.279 -3.997,19.698 3.237,7.617 8.856,11.423 16.851,11.423 h 127.907 c 4.948,0 9.232,-1.813 12.847,-5.428 3.613,-3.613 5.42,-7.898 5.42,-12.847 V 292.362 c 0,-7.994 -3.709,-13.613 -11.136,-16.851 -7.802,-3.23 -14.462,-1.903 -19.985,4.004 L 366.311,320.621 264.952,219.271 366.31,117.917 Z" />
  </g>
</svg>
