<?xml version="1.0" encoding="UTF-8" standalone="no"?>
<svg xmlns="http://www.w3.org/2000/svg" viewBox="0 0 44 44">
  <path fill="#626469" d="M 18,4 H 6 C 4.9,4 4,4.9 4,6 v 12 c 0,1.1 0.9,2 2,2 h 12 c 1.1,0 2,-0.9 2,-2 V 6 C 20,4.9 19.1,4 18,4 Z" />
  <path fill="#626469" d="M 38,4 H 26 c -1.1,0 -2,0.9 -2,2 v 12 c 0,1.1 0.9,2 2,2 h 12 c 1.1,0 2,-0.9 2,-2 V 6 C 40,4.9 39.1,4 38,4 Z" />
  <path fill="#626469" d="M 18,24 H 6 c -1.1,0 -2,0.9 -2,2 v 12 c 0,1.1 0.9,2 2,2 h 12 c 1.1,0 2,-0.9 2,-2 V 26 c 0,-1.1 -0.9,-2 -2,-2 z" />
  <path fill="#626469" d="M 38,24 H 26 c -1.1,0 -2,0.9 -2,2 v 12 c 0,1.1 0.9,2 2,2 h 12 c 1.1,0 2,-0.9 2,-2 V 26 c 0,-1.1 -0.9,-2 -2,-2 z" />
</svg>
