<?xml version="1.0" encoding="UTF-8" standalone="no"?>
<!-- Generator: Adobe Illustrator 18.1.1, SVG Export Plug-In . SVG Version: 6.00 Build 0)  -->

<svg
   xmlns:dc="http://purl.org/dc/elements/1.1/"
   xmlns:cc="http://creativecommons.org/ns#"
   xmlns:rdf="http://www.w3.org/1999/02/22-rdf-syntax-ns#"
   xmlns:svg="http://www.w3.org/2000/svg"
   xmlns="http://www.w3.org/2000/svg"
   xmlns:sodipodi="http://sodipodi.sourceforge.net/DTD/sodipodi-0.dtd"
   xmlns:inkscape="http://www.inkscape.org/namespaces/inkscape"
   version="1.1"
   id="Capa_1"
   x="0px"
   y="0px"
   viewBox="0 0 100 100"
   style="enable-background:new 0 0 100 100;"
   xml:space="preserve"
   sodipodi:docname="info.svg"
   inkscape:version="0.92.2 2405546, 2018-03-11"><metadata
   id="metadata43"><rdf:RDF><cc:Work
       rdf:about=""><dc:format>image/svg+xml</dc:format><dc:type
         rdf:resource="http://purl.org/dc/dcmitype/StillImage" /><dc:title /></cc:Work></rdf:RDF></metadata><defs
   id="defs41" /><sodipodi:namedview
   pagecolor="#ffffff"
   bordercolor="#666666"
   borderopacity="1"
   objecttolerance="10"
   gridtolerance="10"
   guidetolerance="10"
   inkscape:pageopacity="0"
   inkscape:pageshadow="2"
   inkscape:window-width="1894"
   inkscape:window-height="1027"
   id="namedview39"
   showgrid="false"
   inkscape:zoom="2.36"
   inkscape:cx="-78.38983"
   inkscape:cy="50"
   inkscape:window-x="10"
   inkscape:window-y="37"
   inkscape:window-maximized="0"
   inkscape:current-layer="Capa_1" />
<g
   id="g6"
   style="fill:#f2f2f2;fill-opacity:1"
   transform="matrix(0.882,0,0,0.882,5.9,5.9)">
	<g
   id="g4"
   style="fill:#f2f2f2;fill-opacity:1">
		<path
   style="fill:#f2f2f2;fill-opacity:1"
   d="m 62.162,0 c 6.696,0 10.043,4.567 10.043,9.789 0,6.522 -5.814,12.555 -13.391,12.555 -6.344,0 -10.045,-3.752 -9.869,-9.947 C 48.945,7.176 53.35,0 62.162,0 Z M 41.543,100 c -5.287,0 -9.164,-3.262 -5.463,-17.615 l 6.07,-25.457 c 1.057,-4.077 1.23,-5.707 0,-5.707 -1.588,0 -8.451,2.816 -12.51,5.59 L 27,52.406 C 39.863,41.48 54.662,35.072 61.004,35.072 c 5.285,0 6.168,6.361 3.525,16.148 L 57.58,77.98 c -1.234,4.729 -0.703,6.359 0.527,6.359 1.586,0 6.787,-1.963 11.896,-6.041 L 73,82.377 C 60.488,95.1 46.83,100 41.543,100 Z"
   id="path2"
   inkscape:connector-curvature="0" />
	</g>
</g>
<g
   id="g8">
</g>
<g
   id="g10">
</g>
<g
   id="g12">
</g>
<g
   id="g14">
</g>
<g
   id="g16">
</g>
<g
   id="g18">
</g>
<g
   id="g20">
</g>
<g
   id="g22">
</g>
<g
   id="g24">
</g>
<g
   id="g26">
</g>
<g
   id="g28">
</g>
<g
   id="g30">
</g>
<g
   id="g32">
</g>
<g
   id="g34">
</g>
<g
   id="g36">
</g>
</svg>