<?xml version="1.0" encoding="UTF-8" standalone="no"?>
<svg
   xmlns:dc="http://purl.org/dc/elements/1.1/"
   xmlns:cc="http://creativecommons.org/ns#"
   xmlns:rdf="http://www.w3.org/1999/02/22-rdf-syntax-ns#"
   xmlns:svg="http://www.w3.org/2000/svg"
   xmlns="http://www.w3.org/2000/svg"
   xmlns:sodipodi="http://sodipodi.sourceforge.net/DTD/sodipodi-0.dtd"
   xmlns:inkscape="http://www.inkscape.org/namespaces/inkscape"
   viewBox="0 0 512 512"
   version="1.1"
   id="svg875"
   sodipodi:docname="list.svg"
   inkscape:version="0.92.2 2405546, 2018-03-11">
  <metadata
     id="metadata881">
    <rdf:RDF>
      <cc:Work
         rdf:about="">
        <dc:format>image/svg+xml</dc:format>
        <dc:type
           rdf:resource="http://purl.org/dc/dcmitype/StillImage" />
        <dc:title></dc:title>
      </cc:Work>
    </rdf:RDF>
  </metadata>
  <defs
     id="defs879" />
  <sodipodi:namedview
     pagecolor="#ffffff"
     bordercolor="#666666"
     borderopacity="1"
     objecttolerance="10"
     gridtolerance="10"
     guidetolerance="10"
     inkscape:pageopacity="0"
     inkscape:pageshadow="2"
     inkscape:window-width="1894"
     inkscape:window-height="1027"
     id="namedview877"
     showgrid="false"
     inkscape:zoom="1.6035156"
     inkscape:cx="181.16443"
     inkscape:cy="252.08427"
     inkscape:window-x="10"
     inkscape:window-y="37"
     inkscape:window-maximized="0"
     inkscape:current-layer="svg875" />
  <path
     d="m 133.333,56 v 64 c 0,13.255 -10.745,24 -24,24 H 24 C 10.745,144 0,133.255 0,120 V 56 C 0,42.745 10.745,32 24,32 h 85.333 c 13.255,0 24,10.745 24,24 z m 379.334,232 v -64 c 0,-13.255 -10.745,-24 -24,-24 H 213.333 c -13.255,0 -24,10.745 -24,24 v 64 c 0,13.255 10.745,24 24,24 h 275.333 c 13.256,0 24.001,-10.745 24.001,-24 z m 0,-168 V 56 c 0,-13.255 -10.745,-24 -24,-24 H 213.333 c -13.255,0 -24,10.745 -24,24 v 64 c 0,13.255 10.745,24 24,24 h 275.333 c 13.256,0 24.001,-10.745 24.001,-24 z M 109.333,200 H 24 C 10.745,200 0,210.745 0,224 v 64 c 0,13.255 10.745,24 24,24 h 85.333 c 13.255,0 24,-10.745 24,-24 v -64 c 0,-13.255 -10.745,-24 -24,-24 z M 0,392 v 64 c 0,13.255 10.745,24 24,24 h 85.333 c 13.255,0 24,-10.745 24,-24 v -64 c 0,-13.255 -10.745,-24 -24,-24 H 24 C 10.745,368 0,378.745 0,392 Z m 189.333,0 v 64 c 0,13.255 10.745,24 24,24 h 275.333 c 13.255,0 24,-10.745 24,-24 v -64 c 0,-13.255 -10.745,-24 -24,-24 H 213.333 c -13.255,0 -24,10.745 -24,24 z"
     id="path873"
     style="fill:#626469;fill-opacity:1"
     inkscape:connector-curvature="0"
     sodipodi:nodetypes="ssssssssssssssssssssssssssssssssssssssssssssssssssssss" />
</svg>
