<svg xmlns="http://www.w3.org/2000/svg" viewBox="0 0 512 512">
  <path style="fill:#626469;fill-opacity:1" d="m 133.333,56 v 64 c 0,13.255 -10.745,24 -24,24 H 24 C 10.745,144 0,133.255 0,120 V 56 C 0,42.745 10.745,32 24,32 h 85.333 c 13.255,0 24,10.745 24,24 z m 379.334,232 v -64 c 0,-13.255 -10.745,-24 -24,-24 H 213.333 c -13.255,0 -24,10.745 -24,24 v 64 c 0,13.255 10.745,24 24,24 h 275.333 c 13.256,0 24.001,-10.745 24.001,-24 z m 0,-168 V 56 c 0,-13.255 -10.745,-24 -24,-24 H 213.333 c -13.255,0 -24,10.745 -24,24 v 64 c 0,13.255 10.745,24 24,24 h 275.333 c 13.256,0 24.001,-10.745 24.001,-24 z M 109.333,200 H 24 C 10.745,200 0,210.745 0,224 v 64 c 0,13.255 10.745,24 24,24 h 85.333 c 13.255,0 24,-10.745 24,-24 v -64 c 0,-13.255 -10.745,-24 -24,-24 z M 0,392 v 64 c 0,13.255 10.745,24 24,24 h 85.333 c 13.255,0 24,-10.745 24,-24 v -64 c 0,-13.255 -10.745,-24 -24,-24 H 24 C 10.745,368 0,378.745 0,392 Z m 189.333,0 v 64 c 0,13.255 10.745,24 24,24 h 275.333 c 13.255,0 24,-10.745 24,-24 v -64 c 0,-13.255 -10.745,-24 -24,-24 H 213.333 c -13.255,0 -24,10.745 -24,24 z" />
</svg>
