<?xml version="1.0" encoding="UTF-8" standalone="no"?>
<svg
   xmlns:dc="http://purl.org/dc/elements/1.1/"
   xmlns:cc="http://creativecommons.org/ns#"
   xmlns:rdf="http://www.w3.org/1999/02/22-rdf-syntax-ns#"
   xmlns:svg="http://www.w3.org/2000/svg"
   xmlns="http://www.w3.org/2000/svg"
   xmlns:sodipodi="http://sodipodi.sourceforge.net/DTD/sodipodi-0.dtd"
   xmlns:inkscape="http://www.inkscape.org/namespaces/inkscape"
   height="16px"
   id="Layer_1"
   style="enable-background:new 0 0 16 16;"
   version="1.1"
   viewBox="0 0 16 16"
   width="16px"
   xml:space="preserve"
   sodipodi:docname="location.svg"
   inkscape:version="0.92.2 2405546, 2018-03-11"><metadata
     id="metadata2119"><rdf:RDF><cc:Work
         rdf:about=""><dc:format>image/svg+xml</dc:format><dc:type
           rdf:resource="http://purl.org/dc/dcmitype/StillImage" /><dc:title></dc:title></cc:Work></rdf:RDF></metadata><defs
     id="defs2117" /><sodipodi:namedview
     pagecolor="#ffffff"
     bordercolor="#666666"
     borderopacity="1"
     objecttolerance="10"
     gridtolerance="10"
     guidetolerance="10"
     inkscape:pageopacity="0"
     inkscape:pageshadow="2"
     inkscape:window-width="940"
     inkscape:window-height="1027"
     id="namedview2115"
     showgrid="false"
     inkscape:zoom="14.75"
     inkscape:cx="1.6271186"
     inkscape:cy="8"
     inkscape:window-x="964"
     inkscape:window-y="37"
     inkscape:window-maximized="0"
     inkscape:current-layer="Layer_1" /><path
     d="M8,0C4.687,0,2,2.687,2,6c0,3.854,4.321,8.663,5,9.398C7.281,15.703,7.516,16,8,16s0.719-0.297,1-0.602  C9.679,14.663,14,9.854,14,6C14,2.687,11.313,0,8,0z M8,10c-2.209,0-4-1.791-4-4s1.791-4,4-4s4,1.791,4,4S10.209,10,8,10z M8,4  C6.896,4,6,4.896,6,6s0.896,2,2,2s2-0.896,2-2S9.104,4,8,4z"
     id="path2112"
     style="fill:#313538;fill-opacity:1" /></svg>