<?xml version="1.0" encoding="UTF-8" standalone="no"?>
<svg
   xmlns:dc="http://purl.org/dc/elements/1.1/"
   xmlns:cc="http://creativecommons.org/ns#"
   xmlns:rdf="http://www.w3.org/1999/02/22-rdf-syntax-ns#"
   xmlns:svg="http://www.w3.org/2000/svg"
   xmlns="http://www.w3.org/2000/svg"
   xmlns:sodipodi="http://sodipodi.sourceforge.net/DTD/sodipodi-0.dtd"
   xmlns:inkscape="http://www.inkscape.org/namespaces/inkscape"
   viewBox="0 0 192 512"
   version="1.1"
   id="svg846"
   sodipodi:docname="more.svg"
   inkscape:version="0.92.2 2405546, 2018-03-11">
  <metadata
     id="metadata852">
    <rdf:RDF>
      <cc:Work
         rdf:about="">
        <dc:format>image/svg+xml</dc:format>
        <dc:type
           rdf:resource="http://purl.org/dc/dcmitype/StillImage" />
      </cc:Work>
    </rdf:RDF>
  </metadata>
  <defs
     id="defs850" />
  <sodipodi:namedview
     pagecolor="#ffffff"
     bordercolor="#666666"
     borderopacity="1"
     objecttolerance="10"
     gridtolerance="10"
     guidetolerance="10"
     inkscape:pageopacity="0"
     inkscape:pageshadow="2"
     inkscape:window-width="940"
     inkscape:window-height="1027"
     id="namedview848"
     showgrid="false"
     inkscape:zoom="1.6035156"
     inkscape:cx="62.635809"
     inkscape:cy="256"
     inkscape:window-x="964"
     inkscape:window-y="37"
     inkscape:window-maximized="0"
     inkscape:current-layer="svg846" />
  <path
     d="m 96,209.92 c 25.472,0 46.08,20.608 46.08,46.08 0,25.472 -20.608,46.08 -46.08,46.08 -25.472,0 -46.08,-20.608 -46.08,-46.08 0,-25.472 20.608,-46.08 46.08,-46.08 z M 49.92,91.36 c 0,25.472 20.608,46.08 46.08,46.08 25.472,0 46.08,-20.608 46.08,-46.08 0,-25.472 -20.608,-46.08 -46.08,-46.08 -25.472,0 -46.08,20.608 -46.08,46.08 z m 0,329.28 c 0,25.472 20.608,46.08 46.08,46.08 25.472,0 46.08,-20.608 46.08,-46.08 0,-25.472 -20.608,-46.08 -46.08,-46.08 -25.472,0 -46.08,20.608 -46.08,46.08 z"
     id="path844"
     style="fill:#000000;fill-opacity:0.53333336;stroke-width:0.63999999"
     inkscape:connector-curvature="0"
     sodipodi:nodetypes="sssssssssssssss" />
</svg>
