<svg xmlns="http://www.w3.org/2000/svg" viewBox="0 0 192 512">
  <path style="fill:#000000;fill-opacity:0.53333336;stroke-width:0.63999999" d="m 96,209.92 c 25.472,0 46.08,20.608 46.08,46.08 0,25.472 -20.608,46.08 -46.08,46.08 -25.472,0 -46.08,-20.608 -46.08,-46.08 0,-25.472 20.608,-46.08 46.08,-46.08 z M 49.92,91.36 c 0,25.472 20.608,46.08 46.08,46.08 25.472,0 46.08,-20.608 46.08,-46.08 0,-25.472 -20.608,-46.08 -46.08,-46.08 -25.472,0 -46.08,20.608 -46.08,46.08 z m 0,329.28 c 0,25.472 20.608,46.08 46.08,46.08 25.472,0 46.08,-20.608 46.08,-46.08 0,-25.472 -20.608,-46.08 -46.08,-46.08 -25.472,0 -46.08,20.608 -46.08,46.08 z" />
</svg>
