<svg viewBox="0 0 512 512" fill="#6f6f6f" xmlns="http://www.w3.org/2000/svg">
  <path d="M 320,81.987868 V 427.76931 c 0,9.34336 7.6446,16.98788 16.9879,16.98788 h 25.9757 c 9.3433,0 16.9878,-7.64452 16.9878,-16.98788 V 81.987868 C 379.9514,72.644536 372.3069,65 362.9636,65 H 336.9879 C 327.6446,65 320,72.644536 320,81.987868 Z" />
  <path d="M 150,81.987868 V 427.76931 c 0,9.34336 7.64455,16.98788 16.98779,16.98788 h 25.97552 c 9.34324,0 16.98769,-7.64452 16.98769,-16.98788 V 81.987868 C 209.951,72.644536 202.30655,65 192.96331,65 H 166.98779 C 157.64455,65 150,72.644536 150,81.987868 Z" />
</svg>
