<svg viewBox="0 0 512 512" xmlns="http://www.w3.org/2000/svg">
  <path style="fill:#6f6f6f;fill-opacity:1;stroke-width:1.06176" d="m 320.29305,81.98884 v 345.78144 c 0,9.34336 7.64456,16.98788 16.98786,16.98788 h 33.97572 c 9.34333,0 16.98786,-7.64452 16.98786,-16.98788 V 81.98884 c 0,-9.343332 -7.64453,-16.987868 -16.98786,-16.987868 h -33.97572 c -9.3433,0 -16.98786,7.644536 -16.98786,16.987868 z m -185.87858,0 v 345.78144 c 0,9.34336 7.64453,16.98788 16.98786,16.98788 h 33.97572 c 9.3433,0 16.98786,-7.64452 16.98786,-16.98788 V 81.98884 c 0,-9.343332 -7.64456,-16.987868 -16.98786,-16.987868 h -33.97572 c -9.34333,0 -16.98786,7.644536 -16.98786,16.987868 z" />
</svg>
