<?xml version="1.0" encoding="iso-8859-1"?>
<!-- Generator: Adobe Illustrator 19.0.0, SVG Export Plug-In . SVG Version: 6.00 Build 0)  -->
<svg xmlns="http://www.w3.org/2000/svg" xmlns:xlink="http://www.w3.org/1999/xlink" version="1.1" id="Capa_1" x="0px" y="0px" viewBox="0 0 489.888 489.888" style="enable-background:new 0 0 489.888 489.888;" xml:space="preserve" width="512px" height="512px">
<g>
	<g>
		<path d="M25.383,290.5c-7.2-77.5,25.9-147.7,80.8-192.3c21.4-17.4,53.4-2.5,53.4,25l0,0c0,10.1-4.8,19.4-12.6,25.7    c-38.9,31.7-62.3,81.7-56.6,136.9c7.4,71.9,65,130.1,136.8,138.1c93.7,10.5,173.3-62.9,173.3-154.5c0-48.6-22.5-92.1-57.6-120.6    c-7.8-6.3-12.5-15.6-12.5-25.6l0,0c0-27.2,31.5-42.6,52.7-25.6c50.2,40.5,82.4,102.4,82.4,171.8c0,126.9-107.8,229.2-236.7,219.9    C122.183,481.8,35.283,396.9,25.383,290.5z M244.883,0c-18,0-32.5,14.6-32.5,32.5v149.7c0,18,14.6,32.5,32.5,32.5    s32.5-14.6,32.5-32.5V32.5C277.383,14.6,262.883,0,244.883,0z" fill="#6f6f6f"/>
	</g>
</g>
<g>
</g>
<g>
</g>
<g>
</g>
<g>
</g>
<g>
</g>
<g>
</g>
<g>
</g>
<g>
</g>
<g>
</g>
<g>
</g>
<g>
</g>
<g>
</g>
<g>
</g>
<g>
</g>
<g>
</g>
</svg>
