<?xml version="1.0" encoding="UTF-8" standalone="no"?>
<svg
   xmlns:dc="http://purl.org/dc/elements/1.1/"
   xmlns:cc="http://creativecommons.org/ns#"
   xmlns:rdf="http://www.w3.org/1999/02/22-rdf-syntax-ns#"
   xmlns:svg="http://www.w3.org/2000/svg"
   xmlns="http://www.w3.org/2000/svg"
   xmlns:sodipodi="http://sodipodi.sourceforge.net/DTD/sodipodi-0.dtd"
   xmlns:inkscape="http://www.inkscape.org/namespaces/inkscape"
   viewBox="0 0 512 512"
   version="1.1"
   id="svg6029"
   sodipodi:docname="todo_white.svg"
   inkscape:version="0.92.2 2405546, 2018-03-11">
  <metadata
     id="metadata6035">
    <rdf:RDF>
      <cc:Work
         rdf:about="">
        <dc:format>image/svg+xml</dc:format>
        <dc:type
           rdf:resource="http://purl.org/dc/dcmitype/StillImage" />
        <dc:title />
      </cc:Work>
    </rdf:RDF>
  </metadata>
  <defs
     id="defs6033" />
  <sodipodi:namedview
     pagecolor="#ffffff"
     bordercolor="#666666"
     borderopacity="1"
     objecttolerance="10"
     gridtolerance="10"
     guidetolerance="10"
     inkscape:pageopacity="0"
     inkscape:pageshadow="2"
     inkscape:window-width="1894"
     inkscape:window-height="1027"
     id="namedview6031"
     showgrid="false"
     inkscape:zoom="1.84375"
     inkscape:cx="251.21851"
     inkscape:cy="298.38464"
     inkscape:window-x="10"
     inkscape:window-y="37"
     inkscape:window-maximized="0"
     inkscape:current-layer="svg6029" />
  <path
     d="m 208,128 h 288 c 8.8,0 16,-7.2 16,-16 V 80 c 0,-8.8 -7.2,-16 -16,-16 H 208 c -8.8,0 -16,7.2 -16,16 v 32 c 0,8.8 7.2,16 16,16 z m 0,160 h 288 c 8.8,0 16,-7.2 16,-16 v -32 c 0,-8.8 -7.2,-16 -16,-16 H 208 c -8.8,0 -16,7.2 -16,16 v 32 c 0,8.8 7.2,16 16,16 z m 0,160 h 288 c 8.8,0 16,-7.2 16,-16 v -32 c 0,-8.8 -7.2,-16 -16,-16 H 208 c -8.8,0 -16,7.2 -16,16 v 32 c 0,8.8 7.2,16 16,16 z M 64,368 c -26.5,0 -48.6,21.5 -48.6,48 0,26.5 22.1,48 48.6,48 26.5,0 48,-21.5 48,-48 0,-26.5 -21.5,-48 -48,-48 z M 156.5,69 84.3,141.2 68.7,156.8 c -4.7,4.7 -12.9,4.7 -17.6,0 L 3.5,109.4 c -4.7,-4.7 -4.7,-12.3 0,-17 L 19.2,76.7 c 4.7,-4.7 12.3,-4.7 17,0 l 22.7,22.1 63.7,-63.3 c 4.7,-4.7 12.3,-4.7 17,0 l 17,16.5 c 4.6,4.7 4.6,12.3 -0.1,17 z m 0,159.6 -72.2,72.2 -15.7,15.7 c -4.7,4.7 -12.9,4.7 -17.6,0 L 3.5,269 c -4.7,-4.7 -4.7,-12.3 0,-17 l 15.7,-15.7 c 4.7,-4.7 12.3,-4.7 17,0 l 22.7,22.1 63.7,-63.7 c 4.7,-4.7 12.3,-4.7 17,0 l 17,17 c 4.6,4.6 4.6,12.2 -0.1,16.9 z"
     id="path6027"
     style="fill:#f2f2f2;fill-opacity:1"
     inkscape:connector-curvature="0"
     sodipodi:nodetypes="ssssssssssssssssssssssssssssssssscsccsscccccsscsssssccssss" />
</svg>
