<svg xmlns="http://www.w3.org/2000/svg" viewBox="0 0 512 512">
  <path style="fill:#f2f2f2;fill-opacity:1" d="m 208,128 h 288 c 8.8,0 16,-7.2 16,-16 V 80 c 0,-8.8 -7.2,-16 -16,-16 H 208 c -8.8,0 -16,7.2 -16,16 v 32 c 0,8.8 7.2,16 16,16 z m 0,160 h 288 c 8.8,0 16,-7.2 16,-16 v -32 c 0,-8.8 -7.2,-16 -16,-16 H 208 c -8.8,0 -16,7.2 -16,16 v 32 c 0,8.8 7.2,16 16,16 z m 0,160 h 288 c 8.8,0 16,-7.2 16,-16 v -32 c 0,-8.8 -7.2,-16 -16,-16 H 208 c -8.8,0 -16,7.2 -16,16 v 32 c 0,8.8 7.2,16 16,16 z M 64,368 c -26.5,0 -48.6,21.5 -48.6,48 0,26.5 22.1,48 48.6,48 26.5,0 48,-21.5 48,-48 0,-26.5 -21.5,-48 -48,-48 z M 156.5,69 84.3,141.2 68.7,156.8 c -4.7,4.7 -12.9,4.7 -17.6,0 L 3.5,109.4 c -4.7,-4.7 -4.7,-12.3 0,-17 L 19.2,76.7 c 4.7,-4.7 12.3,-4.7 17,0 l 22.7,22.1 63.7,-63.3 c 4.7,-4.7 12.3,-4.7 17,0 l 17,16.5 c 4.6,4.7 4.6,12.3 -0.1,17 z m 0,159.6 -72.2,72.2 -15.7,15.7 c -4.7,4.7 -12.9,4.7 -17.6,0 L 3.5,269 c -4.7,-4.7 -4.7,-12.3 0,-17 l 15.7,-15.7 c 4.7,-4.7 12.3,-4.7 17,0 l 22.7,22.1 63.7,-63.7 c 4.7,-4.7 12.3,-4.7 17,0 l 17,17 c 4.6,4.6 4.6,12.2 -0.1,16.9 z" />
</svg>
