<?xml version="1.0" encoding="UTF-8" standalone="no"?>
<svg
   xmlns:dc="http://purl.org/dc/elements/1.1/"
   xmlns:cc="http://creativecommons.org/ns#"
   xmlns:rdf="http://www.w3.org/1999/02/22-rdf-syntax-ns#"
   xmlns:svg="http://www.w3.org/2000/svg"
   xmlns="http://www.w3.org/2000/svg"
   xmlns:sodipodi="http://sodipodi.sourceforge.net/DTD/sodipodi-0.dtd"
   xmlns:inkscape="http://www.inkscape.org/namespaces/inkscape"
   aria-hidden="true"
   data-prefix="fas"
   data-icon="arrow-alt-to-bottom"
   role="img"
   viewBox="0 0 384 512"
   class="svg-inline--fa fa-arrow-alt-to-bottom fa-w-12 fa-9x"
   version="1.1"
   id="svg7697"
   sodipodi:docname="upload_white.svg"
   inkscape:version="0.92.4 5da689c313, 2019-01-14">
  <metadata
     id="metadata7703">
    <rdf:RDF>
      <cc:Work
         rdf:about="">
        <dc:format>image/svg+xml</dc:format>
        <dc:type
           rdf:resource="http://purl.org/dc/dcmitype/StillImage" />
        <dc:title></dc:title>
      </cc:Work>
    </rdf:RDF>
  </metadata>
  <defs
     id="defs7701" />
  <sodipodi:namedview
     pagecolor="#ffffff"
     bordercolor="#666666"
     borderopacity="1"
     objecttolerance="10"
     gridtolerance="10"
     guidetolerance="10"
     inkscape:pageopacity="0"
     inkscape:pageshadow="2"
     inkscape:window-width="1894"
     inkscape:window-height="1027"
     id="namedview7699"
     showgrid="false"
     inkscape:zoom="0.92187498"
     inkscape:cx="217.54882"
     inkscape:cy="144.42132"
     inkscape:window-x="10"
     inkscape:window-y="37"
     inkscape:window-maximized="0"
     inkscape:current-layer="svg7697" />
  <path
     d="m 157.23297,360.4641 v -186 H 57.532969 c -17.8,0 -28.174568,-11.17176 -14.1,-22.1 L 177.63297,48.164103 c 8.37772,-6.50491 18.92228,-6.50491 27.3,0 l 134.2,104.199997 c 14.07457,10.92824 3.7,22.1 -14.1,22.1 h -99.8 v 186 c 0,13.3 -13.5475,19.67043 -24,24 -6.1592,2.55123 -20,0 -20,0 -13.3,0 -23.86429,-10.70069 -24,-24 z"
     class=""
     id="path7695"
     style="fill:#f2f2f2;fill-opacity:1"
     inkscape:connector-curvature="0"
     sodipodi:nodetypes="scsssssscsass" />
  <path
     d="M 360.22371,413.25476 H 24.223716 c -13.3,0 -23.9999994,6.7 -23.9999994,20 v 12 c 0,13.3 10.6999994,20 23.9999994,20 H 360.22371 c 13.3,0 24,-6.7 24,-20 v -12 c 0,-13.3 -10.7,-20 -24,-20 z"
     class=""
     id="path7695-3"
     style="fill:#f2f2f2;fill-opacity:1"
     inkscape:connector-curvature="0"
     sodipodi:nodetypes="sssssssss" />
</svg>
