<svg xmlns="http://www.w3.org/2000/svg" viewBox="0 0 512 512" version="1.1">
  <rect height="512" rx="20%" width="512" style="fill:#466372;"/>
  <path d="m 247.01004,112.61622 c -47.6307,0 -86.28859,37.63241 -86.42745,84.13081 h 0.44865 c 49.25434,-0.42726 86.21379,42.72771 86.96152,77.49736 -1.06817,-35.42125 38.16652,-76.90984 85.45541,-77.46529 -0.12821,-46.50911 -38.79678,-84.14151 -86.4488,-84.1522 z m 86.44881,84.1522 v 0.23498 c -59.81879,2.63844 -85.90404,51.77527 -85.64768,77.04872 0.47001,48.3998 -25.98911,90.98863 -91.03135,91.24498 l 177.76856,-0.6409 c 47.74821,0 86.44882,-36.93809 86.44882,-83.54332 0,-46.60525 -38.70061,-84.38719 -86.44882,-84.38719 h -1.06818 z m -85.72245,77.33712 c -1.22841,-33.31692 -33.11395,-76.74964 -87.17516,-77.05941 v -0.25634 c -47.56663,0.24566 -85.989494,37.94218 -86.00018,84.38717 0,46.60524 38.27333,84.38721 81.7274,84.17357 77.12349,-0.37386 92.67637,-57.98148 91.44794,-91.24499 z" fill="none" stroke="#f2f3f5" stroke-linejoin="round" stroke-width="35px" style="stroke:#fafafa;stroke-width:50;stroke-opacity:0.85"/>
</svg>
