<svg xmlns="http://www.w3.org/2000/svg" viewBox="0 0 500 500" aria-hidden="true" id="logo">
  <path d="m 249.81902,82.02209 c -60.92742,0.008 -110.36509,49.42061 -110.54451,110.48945 0.19165,-0.008 0.38331,-0.0145 0.575,-0.0214 62.9966,-0.55895 110.26862,56.10327 111.21972,101.77446 -1.36113,-46.51892 48.80548,-100.95619 109.297,-101.72553 C 360.20192,131.45827 310.75797,82.02801 249.81867,82.02209 Z m 110.54758,110.51698 0.01,0.29973 c -76.55325,3.46637 -109.86187,68.00462 -109.54421,101.19597 0.60821,63.54878 -33.23628,119.47914 -116.41793,119.82812 l 227.35682,-0.84967 c 61.06068,6.4e-4 110.56033,-48.50673 110.55982,-109.70943 -10e-4,-61.20148 -49.50035,-110.81428 -110.55982,-110.81365 -0.46806,0.0129 -0.93601,0.0296 -1.40387,0.0489 z M 250.74065,294.038 C 249.16401,250.29395 208.4383,193.24696 139.25922,192.8388 l 0.0153,-0.32726 C 78.448085,192.828 29.301862,242.33505 29.289759,303.30379 29.289241,364.50647 78.23614,414.07363 133.81565,413.84368 232.42029,413.43571 252.31728,337.78206 250.74065,294.038 Z"
        style="fill:#00000000;stroke:#9AD1ED;stroke-width:35;" />
</svg>
